<svg width="183" height="72" viewBox="0 0 183 72" fill="none" xmlns="http://www.w3.org/2000/svg">
<path d="M68.4024 51.3079L61.2618 35.9236C61.2038 35.8366 61.1457 35.7204 61.1167 35.6334C60.362 34.4142 58.7365 34.0659 57.5173 34.8206L57.4303 34.8787L37.0533 47.7086L50.2316 26.664L54.4115 32.3243C54.7888 32.8177 55.4564 33.0209 56.037 32.7597C56.7046 32.4694 57.0239 31.6857 56.7336 30.9891L52.2925 20.8296C52.0893 20.3362 51.7119 19.9298 51.2185 19.6685C50.0284 19.0299 48.577 19.4944 47.9384 20.6845L47.8514 20.8586L31.7124 51.3079C31.5092 51.6853 31.5092 52.1497 31.6834 52.527C32.0027 53.1947 32.8154 53.4559 33.483 53.1366H33.5121L57.9237 40.9453L66.1383 52.6432C66.5157 53.1656 67.2123 53.3688 67.7929 53.0786C68.4315 52.7593 68.7217 51.9755 68.4024 51.3079Z" fill="#050C35"/>
<path d="M80.7971 27.564H85.064L88.7214 39.0296H85.2382L84.6286 36.8816H80.8261L80.2165 39.0296H77.1396L80.7971 27.564ZM81.4357 34.6465H83.961L82.7128 30.2344L81.4357 34.6465Z" fill="#050C35"/>
<path d="M94.6428 27.564H97.9519V36.5043H102.277V39.0296H94.6428V27.564Z" fill="#050C35"/>
<path d="M108.488 27.564H112.843C114.41 27.564 115.571 27.9123 116.326 28.5799C117.08 29.2475 117.458 30.2054 117.458 31.4245V31.4536C117.458 32.6727 117.08 33.5725 116.297 34.2111C115.513 34.8497 114.41 35.169 112.988 35.169H111.74V39.0296H108.459V27.564H108.488ZM112.726 32.9339C113.278 32.9339 113.684 32.8178 113.946 32.5856C114.207 32.3534 114.352 31.9761 114.352 31.5116V31.4536C114.352 30.9601 114.207 30.6118 113.946 30.4086C113.655 30.2054 113.278 30.0893 112.755 30.0893H111.798V32.992H112.726V32.9339Z" fill="#050C35"/>
<path d="M123.583 27.564H126.892V31.947H130.665V27.564H133.945V39.0296H130.665V34.5304H126.892V39.0586H123.583V27.564Z" fill="#050C35"/>
<path d="M143.553 27.564H147.82L151.478 39.0296H147.994L147.385 36.8816H143.582L142.973 39.0296H139.896L143.553 27.564ZM144.221 34.6465H146.746L145.498 30.2344L144.221 34.6465Z" fill="#050C35"/>
<path d="M126.224 45.6476C126.079 45.6476 125.963 45.5895 125.876 45.5024C125.789 45.4153 125.731 45.2992 125.731 45.1541C125.731 45.009 125.789 44.8929 125.876 44.8058C125.963 44.7187 126.079 44.6606 126.224 44.6606C126.369 44.6606 126.485 44.7187 126.572 44.8058C126.659 44.8929 126.718 45.009 126.718 45.1541C126.718 45.2992 126.659 45.4153 126.572 45.5024C126.485 45.5895 126.369 45.6476 126.224 45.6476ZM125.876 46.6345H126.63V51.3368H125.876V46.6345Z" fill="#050C35"/>
<path d="M128.604 46.6344H129.359V47.3891C129.475 47.1569 129.649 46.9828 129.911 46.8086C130.172 46.6344 130.491 46.5474 130.869 46.5474C131.101 46.5474 131.333 46.5764 131.536 46.6635C131.739 46.7215 131.914 46.8376 132.059 46.9828C132.204 47.1279 132.32 47.3311 132.407 47.5633C132.494 47.7955 132.523 48.0858 132.523 48.4341V51.3368H131.768V48.3761C131.768 47.9697 131.681 47.6504 131.507 47.4762C131.333 47.3021 131.043 47.186 130.665 47.186C130.491 47.186 130.317 47.215 130.172 47.273C130.027 47.3311 129.882 47.4182 129.766 47.5053C129.649 47.6214 129.562 47.7375 129.475 47.9116C129.388 48.0858 129.359 48.26 129.359 48.4631V51.3368H128.604V46.6344V46.6344Z" fill="#050C35"/>
<path d="M133.829 46.6345H134.642L136.035 50.5822L137.4 46.6345H138.183L136.5 51.3369H135.542L133.829 46.6345Z" fill="#050C35"/>
<path d="M141.434 51.3948C141.086 51.3948 140.796 51.3368 140.506 51.2207C140.215 51.1046 139.983 50.9594 139.78 50.7272C139.577 50.524 139.432 50.2628 139.315 49.9725C139.199 49.6822 139.141 49.363 139.141 48.9856V48.9275C139.141 48.5792 139.199 48.2599 139.315 47.9406C139.432 47.6504 139.577 47.3891 139.78 47.1859C139.983 46.9827 140.215 46.8086 140.477 46.6925C140.738 46.5764 141.057 46.5183 141.376 46.5183C141.638 46.5183 141.899 46.5764 142.16 46.6634C142.421 46.7505 142.654 46.8957 142.828 47.0698C143.031 47.244 143.176 47.5052 143.292 47.7955C143.408 48.0858 143.466 48.4631 143.466 48.8695V49.1017H139.925C139.954 49.6242 140.07 50.0306 140.331 50.3208C140.593 50.6111 140.941 50.7272 141.434 50.7272C142.16 50.7272 142.595 50.466 142.683 49.9145H143.437C143.35 50.3789 143.118 50.7562 142.77 50.9885C142.421 51.2787 141.957 51.3948 141.434 51.3948ZM142.712 48.5212C142.683 48.0277 142.537 47.6794 142.305 47.4762C142.073 47.273 141.754 47.1569 141.376 47.1569C140.999 47.1569 140.68 47.273 140.447 47.5052C140.215 47.7374 140.041 48.0858 139.983 48.4921H142.712V48.5212Z" fill="#050C35"/>
<path d="M146.601 51.3949C146.05 51.3949 145.585 51.2497 145.266 50.9885C144.947 50.7272 144.772 50.3499 144.743 49.8564H145.469C145.498 50.1467 145.585 50.3499 145.759 50.5241C145.934 50.6982 146.195 50.7563 146.572 50.7563C146.92 50.7563 147.182 50.6982 147.356 50.5821C147.53 50.466 147.588 50.2628 147.588 50.0306C147.588 49.7984 147.501 49.5952 147.327 49.5081C147.153 49.392 146.862 49.3049 146.514 49.2469C146.195 49.1888 145.963 49.1308 145.73 49.0437C145.527 48.9566 145.353 48.8695 145.237 48.7824C145.121 48.6954 145.034 48.5502 144.976 48.4051C144.918 48.26 144.889 48.0858 144.889 47.8826C144.889 47.6794 144.947 47.4762 145.034 47.3021C145.121 47.1279 145.266 47.0118 145.411 46.8957C145.556 46.7796 145.73 46.6925 145.934 46.6344C146.137 46.5764 146.311 46.5474 146.485 46.5474C146.688 46.5474 146.891 46.5764 147.095 46.6054C147.298 46.6635 147.472 46.7215 147.617 46.8376C147.762 46.9537 147.907 47.0989 147.994 47.273C148.111 47.4472 148.169 47.6504 148.198 47.9116H147.472C147.414 47.6504 147.327 47.4762 147.153 47.3601C147.008 47.244 146.775 47.186 146.485 47.186C146.224 47.186 145.992 47.244 145.846 47.3601C145.672 47.4762 145.614 47.6504 145.614 47.8536C145.614 47.9697 145.643 48.0568 145.672 48.1148C145.701 48.2019 145.759 48.26 145.846 48.318C145.934 48.3761 146.05 48.4341 146.195 48.4631C146.34 48.5212 146.514 48.5502 146.717 48.5792C146.949 48.6373 147.182 48.6663 147.385 48.7244C147.588 48.7824 147.762 48.8695 147.907 48.9566C148.052 49.0437 148.169 49.1888 148.256 49.3339C148.343 49.4791 148.372 49.7113 148.372 49.9435C148.372 50.3789 148.227 50.7272 147.936 50.9885C147.588 51.2788 147.153 51.3949 146.601 51.3949Z" fill="#050C35"/>
<path d="M151.362 51.3949C150.926 51.3949 150.607 51.2788 150.404 51.0466C150.2 50.8144 150.084 50.5241 150.084 50.1468V47.2441H149.417V46.6055H150.084V45.5315H150.839V46.6055H151.942V47.2441H150.839V50.0597C150.839 50.5241 151.042 50.7563 151.42 50.7563C151.536 50.7563 151.652 50.7563 151.739 50.7273C151.826 50.6983 151.913 50.6983 152 50.6693V51.3079C151.913 51.3369 151.826 51.3659 151.739 51.3659C151.623 51.3949 151.507 51.3949 151.362 51.3949Z" fill="#050C35"/>
</svg>
