<svg width="99" height="40" viewBox="0 0 99 40" fill="none" xmlns="http://www.w3.org/2000/svg">
<path d="M10.944 32.48C12.1174 32.48 13.2534 32.3306 14.352 32.032C15.4614 31.7333 16.4534 31.2853 17.328 30.688C18.2027 30.08 18.896 29.3173 19.408 28.4C19.9307 27.472 20.192 26.3893 20.192 25.152C20.192 23.9893 19.9734 23.0293 19.536 22.272C19.1094 21.5146 18.56 20.9066 17.888 20.448C17.2267 19.9786 16.5334 19.616 15.808 19.36C15.0827 19.0933 14.4214 18.88 13.824 18.72L9.82403 17.632C9.33336 17.504 8.85336 17.344 8.38403 17.152C7.9147 16.96 7.52536 16.7093 7.21603 16.4C6.9067 16.08 6.75203 15.6693 6.75203 15.168C6.75203 14.624 6.9387 14.1546 7.31203 13.76C7.69603 13.3653 8.1867 13.0666 8.78403 12.864C9.39203 12.6506 10.0374 12.5546 10.72 12.576C11.7654 12.608 12.7254 12.9173 13.6 13.504C14.4747 14.0906 15.04 14.944 15.296 16.064L20 15.264C19.4454 13.0986 18.368 11.44 16.768 10.288C15.168 9.13598 13.1734 8.54398 10.784 8.51198C9.20536 8.50131 7.76536 8.74665 6.46403 9.24798C5.1627 9.74931 4.1227 10.512 3.34403 11.536C2.56536 12.56 2.17603 13.8453 2.17603 15.392C2.17603 16.4906 2.35736 17.4026 2.72003 18.128C3.09336 18.8426 3.55736 19.4186 4.11203 19.856C4.6667 20.2933 5.23736 20.6293 5.82403 20.864C6.42136 21.0986 6.94403 21.28 7.39203 21.408L13.376 23.168C14.272 23.4346 14.8694 23.7706 15.168 24.176C15.4667 24.5706 15.616 25.0026 15.616 25.472C15.616 26.112 15.3974 26.6506 14.96 27.088C14.5334 27.5253 13.984 27.856 13.312 28.08C12.64 28.304 11.9467 28.416 11.232 28.416C9.95203 28.416 8.8107 28.0586 7.80803 27.344C6.80536 26.6293 6.14403 25.6106 5.82403 24.288L1.28003 24.96C1.5147 26.5173 2.06936 27.8613 2.94403 28.992C3.82936 30.112 4.9547 30.976 6.32003 31.584C7.69603 32.1813 9.23736 32.48 10.944 32.48Z" fill="#050C35"/>
<path d="M29.5008 32.512C30.7488 32.512 31.8368 32.304 32.7648 31.888C33.6928 31.472 34.4714 30.9173 35.1008 30.224V32H38.9408V14.72H34.5568V23.488C34.5568 24.5546 34.4341 25.4186 34.1888 26.08C33.9541 26.7306 33.6501 27.2266 33.2768 27.568C32.9034 27.8986 32.5034 28.1226 32.0768 28.24C31.6501 28.3573 31.2501 28.416 30.8768 28.416C29.9488 28.416 29.2288 28.208 28.7168 27.792C28.2154 27.376 27.8528 26.8586 27.6288 26.24C27.4048 25.6213 27.2714 25.008 27.2288 24.4C27.1861 23.7813 27.1648 23.2746 27.1648 22.88V14.72H22.7488V24.416C22.7488 24.704 22.7701 25.1626 22.8128 25.792C22.8554 26.4213 22.9781 27.12 23.1808 27.888C23.3834 28.6453 23.7194 29.376 24.1888 30.08C24.6688 30.784 25.3354 31.3653 26.1888 31.824C27.0421 32.2826 28.1461 32.512 29.5008 32.512Z" fill="#050C35"/>
<path d="M42.7725 32H47.1565V23.168C47.1565 21.1626 47.9459 19.7973 49.5245 19.072C50.0365 18.8266 50.6072 18.6826 51.2365 18.64C51.8765 18.5866 52.4365 18.6346 52.9165 18.784V14.72C52.1379 14.624 51.3592 14.6453 50.5805 14.784C49.8019 14.912 49.0979 15.168 48.4685 15.552C48.0632 15.7866 47.7059 16.0693 47.3965 16.4C47.0979 16.7306 46.8365 17.0986 46.6125 17.504V14.72H42.7725V32Z" fill="#050C35"/>
<path d="M63.0395 32.48C64.7035 32.48 66.2342 32.0426 67.6315 31.168C69.0395 30.2933 70.0689 29.0666 70.7195 27.488L66.3675 26.24C65.7062 27.6906 64.5115 28.416 62.7835 28.416C61.5995 28.416 60.6662 28.0853 59.9835 27.424C59.3115 26.7626 58.8955 25.8133 58.7355 24.576H70.8635C71.0449 22.4853 70.8315 20.6666 70.2235 19.12C69.6155 17.5733 68.6769 16.3733 67.4075 15.52C66.1382 14.6666 64.5969 14.24 62.7835 14.24C61.0769 14.24 59.5675 14.6293 58.2555 15.408C56.9435 16.176 55.9142 17.2586 55.1675 18.656C54.4209 20.0533 54.0475 21.696 54.0475 23.584C54.0475 25.312 54.4262 26.848 55.1835 28.192C55.9515 29.5253 57.0075 30.576 58.3515 31.344C59.7062 32.1013 61.2689 32.48 63.0395 32.48ZM62.9755 18.016C64.0209 18.016 64.8209 18.2773 65.3755 18.8C65.9409 19.3226 66.3035 20.1706 66.4635 21.344H58.8475C59.3062 19.1253 60.6822 18.016 62.9755 18.016Z" fill="#050C35"/>
<path d="M74.1563 32H78.5083V8.47998H74.1563V32Z" fill="#050C35"/>
<path d="M84.873 39.68H88.905L98.665 14.72H94.313L89.801 26.48L85.257 14.72H80.745L87.721 31.856L84.873 39.68Z" fill="#050C35"/>
</svg>
