<svg width="183" height="72" viewBox="0 0 183 72" fill="none" xmlns="http://www.w3.org/2000/svg">
<path d="M71.7388 26.6741L64.2295 30.7342L62.7923 31.5246L63.1156 30.0874L64.5528 23.6919L60.1693 27.7879L57.1512 13.2363L54.9595 23.8356L47.4861 15.7514L32.4316 24.5183L43.0667 35.9799V51.0345L57.1512 59.1546L71.2358 51.0345V34.7583L68.7207 33.2852L71.7388 26.6741ZM36.3479 25.0932L46.9832 18.9132L54.3128 26.8537L54.0972 27.8238L49.7137 23.6919L51.1509 30.0874L51.4744 31.5246L50.0372 30.7342L42.5277 26.6741L45.5818 33.3211L44.5398 33.9319L36.3479 25.0932ZM55.8937 55.5976L45.546 49.6332V37.6327L55.8937 43.597V55.5976ZM50.2168 37.489L48.7797 34.3631L47.9172 32.4588L50.073 33.6445L55.1032 36.3751L53.9895 31.3809L53.9175 31.0935L54.1332 31.309L55.6421 32.7103L56.1811 30.1233L57.0075 26.1711L57.1512 25.5603L57.3668 26.5663L58.1214 30.1593L58.6604 32.7462L60.1693 31.345L60.3849 31.1294L60.313 31.4168L59.1993 36.4111L64.2295 33.6804L66.3853 32.4947L65.5228 34.399L64.0856 37.5249L57.1512 41.549L50.2168 37.489ZM68.7565 37.6327V49.5973L58.4088 55.5617V43.633L68.7565 37.6327Z" fill="#050C35"/>
<path d="M99.8718 34.1121H90.3863V36.5194H99.5844V39.8609H90.3863V42.4119H100.015V45.6815H86.3621V30.8784H99.9077V34.1121H99.8718Z" fill="#050C35"/>
<path d="M104.866 45.6811H100.447L105.405 40.1479L100.303 34.6506H105.046L107.884 37.7406L110.615 34.6506H114.891L110.148 40.076L115.178 45.6811H110.723L107.776 42.5193L104.866 45.6811Z" fill="#050C35"/>
<path d="M119.489 34.6506V36.0519C119.957 35.5489 121.43 34.4351 123.909 34.4351H124.16C128.364 34.4351 129.729 37.3094 129.729 39.9323V40.2557C129.729 42.663 128.328 45.8607 124.124 45.8607H123.837C121.322 45.8607 119.957 44.711 119.489 44.2439V49.4537H115.609V34.6506H119.489ZM122.759 37.3094H122.544C120.208 37.3094 119.489 38.8544 119.489 40.112V40.1838C119.489 41.4054 120.208 42.9864 122.544 42.9864H122.759C125.166 42.9864 125.741 41.3336 125.741 40.1838V40.112C125.741 38.9263 125.202 37.3094 122.759 37.3094Z" fill="#050C35"/>
<path d="M131.31 45.6811V30.6265H135.191V45.6811H131.31Z" fill="#050C35"/>
<path d="M136.7 40.3636V40.0761C136.7 38.1 137.598 34.3633 143.527 34.3633H144.173C150.281 34.3633 151 38.1359 151 40.0761V40.3636C151 42.3397 150.281 45.9686 144.137 45.9686H143.527C137.634 45.9686 136.7 42.3397 136.7 40.3636ZM147.048 40.1121C147.048 38.8545 146.437 37.2017 143.994 37.2017H143.778C141.227 37.2017 140.724 38.8545 140.724 40.1121C140.724 41.3337 141.227 43.0583 143.778 43.0583H143.994C146.401 43.0583 147.048 41.3337 147.048 40.1121Z" fill="#050C35"/>
</svg>
