<svg width="16" height="16" viewBox="0 0 16 16" fill="none" xmlns="http://www.w3.org/2000/svg">
<g clip-path="url(#clip0)">
<path fill-rule="evenodd" clip-rule="evenodd" d="M8.54664 16H0.883972C0.649755 15.9999 0.425163 15.9068 0.259577 15.7412C0.0939924 15.5755 0.000976609 15.3509 0.000976625 15.1167V0.883331C0.000932822 0.767318 0.0237493 0.652433 0.0681255 0.545242C0.112502 0.438052 0.177564 0.34066 0.259598 0.258626C0.341632 0.176593 0.439028 0.111525 0.546219 0.0671489C0.65341 0.0227728 0.768295 -4.37405e-05 0.884308 6.2951e-08H15.118C15.234 5.46867e-08 15.3488 0.0228498 15.456 0.0672455C15.5631 0.111641 15.6605 0.176714 15.7425 0.258743C15.8245 0.340773 15.8895 0.438155 15.9339 0.545324C15.9782 0.652493 16.001 0.767346 16.001 0.883331V15.1167C16.001 15.3509 15.908 15.5755 15.7424 15.7412C15.5768 15.9068 15.3522 15.9999 15.118 16H11.0406V9.804H13.1206L13.432 7.38933H11.0406V5.84767C11.0406 5.14833 11.235 4.672 12.2373 4.672L13.516 4.67134V2.51167C13.295 2.48233 12.536 2.41667 11.6526 2.41667C9.8093 2.41667 8.54698 3.542 8.54698 5.60833V7.38933H6.46197V9.804H8.54698V16H8.54664Z" fill="#050C35"/>
</g>
<defs>
<clipPath id="clip0">
<rect width="16" height="16" fill="white"/>
</clipPath>
</defs>
</svg>
