<svg width="32" height="32" viewBox="0 0 32 32" fill="none" xmlns="http://www.w3.org/2000/svg">
<rect width="32" height="32" fill="#050C35"/>
<path d="M15.727 27C17.1717 27 18.5237 26.7552 19.7829 26.2657C21.0422 25.7762 22.0574 25.0419 22.8286 24.0628C23.6095 23.0837 24 21.8648 24 20.406C24 19.3584 23.8048 18.4919 23.4143 17.8065C23.0336 17.1114 22.5406 16.5533 21.9354 16.1323C21.3399 15.7113 20.7201 15.3833 20.0758 15.1484C19.4413 14.9134 18.8653 14.7274 18.348 14.5903L14.5702 13.5329C14.1016 13.4056 13.6331 13.249 13.1645 13.0629C12.696 12.8671 12.3055 12.6077 11.9931 12.2846C11.6807 11.9517 11.5245 11.5258 11.5245 11.0069C11.5245 10.4586 11.7051 9.97887 12.0663 9.56766C12.4373 9.15645 12.9205 8.83825 13.5159 8.61307C14.1212 8.38788 14.7752 8.28508 15.478 8.30466C16.5616 8.33403 17.5378 8.65223 18.4065 9.25925C19.2753 9.86628 19.822 10.7279 20.0465 11.844L23.8389 11.1831C23.3704 9.22499 22.4088 7.71232 20.9544 6.64514C19.4999 5.56816 17.6891 5.01988 15.522 5.0003C14.0968 4.99051 12.7984 5.22059 11.627 5.69054C10.4654 6.15071 9.53804 6.84095 8.84496 7.76128C8.16164 8.6816 7.81998 9.82222 7.81998 11.1831C7.81998 12.1132 7.97129 12.8965 8.2739 13.5329C8.58628 14.1595 8.98163 14.6735 9.45995 15.0749C9.94803 15.4763 10.4605 15.7945 10.9974 16.0295C11.5441 16.2645 12.0517 16.4505 12.5202 16.5876L17.9673 18.2031C19.5291 18.673 20.3101 19.4856 20.3101 20.6409C20.3101 21.2871 20.1002 21.8403 19.6804 22.3005C19.2705 22.7508 18.7336 23.0935 18.0698 23.3285C17.406 23.5635 16.6982 23.681 15.9466 23.681C14.6776 23.681 13.555 23.3383 12.5788 22.6529C11.6124 21.9676 10.973 20.9983 10.6606 19.7451L7 20.3032C7.22452 21.6837 7.73213 22.8781 8.52283 23.8866C9.32328 24.8852 10.3385 25.6538 11.5685 26.1923C12.8082 26.7308 14.1944 27 15.727 27Z" fill="white"/>
</svg>
