<svg width="289" height="59" viewBox="0 0 289 59" fill="none" xmlns="http://www.w3.org/2000/svg">
<path d="M98.7033 40L93.4249 32.4976C96.3014 31.9935 98.3475 29.1467 98.3475 26.2406C98.3475 22.8897 96.331 19.5685 91.6457 19.5685H83.4909V40H87.6128V32.6755H89.0065L93.8698 40H98.7033ZM91.2306 23.2159C93.1581 23.2159 94.1959 24.6986 94.1959 26.3296C94.1959 27.9605 93.2174 29.3543 90.9044 29.3543H87.6128V23.2159H91.2306Z" fill="white"/>
<path d="M108.888 27.3378L103.847 19.5685H98.9241L106.842 30.7183V40H110.964V30.7776L118.911 19.5685H114.018L108.888 27.3378Z" fill="white"/>
<path d="M129.083 40.3558C134.866 40.3558 139.492 35.5816 139.492 29.7991C139.492 23.9869 134.866 19.2126 129.083 19.2126C123.271 19.2126 118.705 23.9869 118.705 29.7991C118.705 35.5816 123.271 40.3558 129.083 40.3558ZM129.083 36.4712C125.406 36.4712 122.827 33.4761 122.827 29.7991C122.827 26.122 125.406 23.0973 129.083 23.0973C132.731 23.0973 135.34 26.122 135.34 29.7991C135.34 33.4761 132.731 36.4712 129.083 36.4712Z" fill="white"/>
<path d="M149.431 40.3558C153.286 40.3558 156.755 38.1318 156.755 34.0692C156.755 30.5997 154.057 29.0281 150.973 28.1088L148.689 27.4564C146.554 26.8337 146.406 25.7958 146.406 25.2917C146.406 23.9276 147.622 22.8601 149.223 22.8601C151.002 22.8601 152.011 23.9869 152.011 25.44H156.132C156.132 21.5553 153.167 19.2126 149.312 19.2126C145.398 19.2126 142.254 21.7332 142.254 25.3806C142.254 27.2192 143.055 29.9177 147.533 31.1038L150.024 31.8155C151.773 32.3493 152.604 33.15 152.604 34.2768C152.604 35.7298 151.388 36.7381 149.549 36.7381C147.651 36.7381 146.228 35.5223 146.198 34.0692H142.076C142.076 37.6573 145.072 40.3558 149.431 40.3558Z" fill="white"/>
<path d="M172.235 27.9902H164.614V19.5685H160.492V40H164.614V31.6969H172.235V40H176.357V19.5685H172.235V27.9902Z" fill="white"/>
<path d="M185.465 40V19.5685H181.343V40H185.465Z" fill="white"/>
<path d="M203.031 33.3575L199.265 19.5685H194.994L201.192 40H204.899L211.097 19.5685H206.797L203.031 33.3575Z" fill="white"/>
<path d="M218.246 40V19.5685H214.124V40H218.246Z" fill="white"/>
<path d="M229.415 40.3558C233.27 40.3558 236.739 38.1318 236.739 34.0692C236.739 30.5997 234.041 29.0281 230.957 28.1088L228.674 27.4564C226.539 26.8337 226.39 25.7958 226.39 25.2917C226.39 23.9276 227.606 22.8601 229.207 22.8601C230.987 22.8601 231.995 23.9869 231.995 25.44H236.117C236.117 21.5553 233.151 19.2126 229.296 19.2126C225.382 19.2126 222.239 21.7332 222.239 25.3806C222.239 27.2192 223.039 29.9177 227.517 31.1038L230.008 31.8155C231.758 32.3493 232.588 33.15 232.588 34.2768C232.588 35.7298 231.372 36.7381 229.534 36.7381C227.636 36.7381 226.212 35.5223 226.183 34.0692H222.061C222.061 37.6573 225.056 40.3558 229.415 40.3558Z" fill="white"/>
<path d="M244.599 40V19.5685H240.477V40H244.599Z" fill="white"/>
<path d="M258.703 40.3558C264.486 40.3558 269.112 35.5816 269.112 29.7991C269.112 23.9869 264.486 19.2126 258.703 19.2126C252.891 19.2126 248.324 23.9869 248.324 29.7991C248.324 35.5816 252.891 40.3558 258.703 40.3558ZM258.703 36.4712C255.026 36.4712 252.446 33.4761 252.446 29.7991C252.446 26.122 255.026 23.0973 258.703 23.0973C262.351 23.0973 264.96 26.122 264.96 29.7991C264.96 33.4761 262.351 36.4712 258.703 36.4712Z" fill="white"/>
<path d="M283.973 32.2307L276.678 19.5685H272.853V40H276.975V27.1895L284.388 40H288.095V19.5685H283.973V32.2307Z" fill="white"/>
<g clip-path="url(#clip0)">
<path d="M30.497 58.1474C47.3401 58.1474 60.994 45.1307 60.994 29.0737C60.994 13.0167 47.3401 0 30.497 0C13.654 0 0 13.0167 0 29.0737C0 45.1307 13.654 58.1474 30.497 58.1474Z" fill="url(#paint0_radial)"/>
<path d="M20.4445 9.90363C17.8058 7.34322 14.5065 5.5678 10.9161 4.77612C10.9161 4.77612 6.07441 11.1423 10.3146 24.7918C14.5547 38.4414 22.3562 12.8396 20.4445 9.90363Z" fill="#1A1917"/>
<path d="M13.3041 28.5199C12.2798 28.5199 11.3329 27.2038 10.5587 24.7204C6.72947 12.387 10.392 6.02676 11.0232 5.06796C14.4974 5.87408 17.6889 7.60462 20.2599 10.0764C21.1949 11.6069 19.3904 20.0872 16.6212 25.2028C15.4301 27.3705 14.2986 28.5199 13.316 28.5199H13.3041Z" fill="#606060"/>
<path d="M20.2599 10.0764C19.2679 9.10895 18.1736 8.25231 16.9964 7.52153C17.4311 7.94436 18.9259 9.44509 18.1577 9.44509C17.2644 9.44509 14.9775 7.6585 13.5781 7.06298C12.1786 6.46745 11.3508 6.17564 11.1007 7.06298C10.8505 7.95031 9.82622 10.8803 9.95724 13.6138C10.0883 16.3473 9.1771 17.9731 8.83765 14.4237C8.87456 17.2875 9.27477 20.1351 10.0287 22.8981C10.5046 23.002 10.9995 22.9795 11.4639 22.8326C14.0828 22.0092 16.5954 20.8799 18.9497 19.4678C20.2599 15.2634 20.8554 11.0947 20.2599 10.0764Z" fill="#ADADAD"/>
<path d="M12.3691 6.99149C12.3691 6.99149 9.63567 12.4584 11.2912 17.9254C12.9468 23.3923 17.455 11.6902 17.455 11.6902C17.455 11.6902 16.252 9.08775 12.3691 6.99149Z" fill="#FFF2E6"/>
<path d="M12.3691 6.99149C14.2371 9.45011 15.4132 12.3637 15.7756 15.4301C16.7403 13.5483 17.455 11.6902 17.455 11.6902C17.455 11.6902 16.252 9.08775 12.3691 6.99149Z" fill="#DDD0C5"/>
<path d="M11.4163 6.5687C14.494 7.64748 17.0812 9.79713 18.7055 12.6252C21.5045 17.4192 17.0142 9.65949 11.4163 6.5687Z" fill="#333333"/>
<path d="M26.8107 54.7053C22.0465 54.7053 17.9194 53.7286 14.4654 51.805C11.6892 50.2547 9.32136 48.0665 7.55724 45.421C5.68346 42.6281 4.43608 39.463 3.9007 36.1426V35.958L4.06744 35.8806C5.60986 35.1719 7.99198 30.1993 8.11704 24.7859C8.20394 20.9618 9.58776 17.2807 12.0416 14.3463C15.6147 10.1121 21.314 7.68233 28.9546 7.11658C29.7109 7.06298 30.4672 7.0332 31.1938 7.0332C38.1198 7.0332 43.9024 9.60589 47.9222 14.4714C50.9746 18.2549 52.8394 22.8569 53.2819 27.698C53.8775 35.4399 57.3851 36.494 57.4506 36.5059L57.7008 36.5714L57.6233 36.8215C54.2407 48.1366 44.3192 54.0919 28.1387 54.6874C27.7159 54.6874 27.2871 54.6874 26.8762 54.6874L26.8107 54.7053Z" fill="#1A1917"/>
<path d="M57.3256 36.7501C57.3256 36.7501 53.6393 35.7317 53.002 27.7218C52.3648 19.712 46.2607 6.09819 28.9665 7.37262C11.6724 8.64706 8.49223 19.3249 8.3493 24.7918C8.20638 30.2588 5.8064 35.3506 4.1806 36.1069C4.1806 36.1069 6.34237 55.1638 28.0911 54.4194C49.8398 53.675 55.3961 43.1103 57.3256 36.7501Z" fill="#1A1917"/>
<path d="M26.8107 54.1931C22.1596 54.1931 18.0922 53.2403 14.7155 51.3584C12.0108 49.8489 9.70566 47.7153 7.992 45.1351C6.19207 42.4583 4.97471 39.4332 4.41882 36.2558C6.25901 35.16 8.47437 29.9789 8.58752 24.7978C8.67685 21.1174 10.3741 8.99248 28.9546 7.62277C29.699 7.56917 30.4434 7.54535 31.1581 7.54535C34.5496 7.48764 37.9099 8.20245 40.9843 9.63566C43.5169 10.858 45.7525 12.6179 47.5351 14.7929C50.5182 18.5079 52.3335 23.0235 52.7519 27.7695C53.3058 34.767 56.1464 36.5476 57.0159 36.9287C53.6333 47.8388 43.9143 53.6452 28.0673 54.1991C27.6504 54.1991 27.2276 54.1991 26.8226 54.1991L26.8107 54.1931Z" fill="white"/>
<path d="M24.8216 39.6146C24.7364 39.6164 24.6535 39.6434 24.5834 39.692C23.7979 40.163 22.8897 40.3891 21.975 40.3411C18.2232 40.3411 18.2649 38.0186 18.2649 38.0186L18.0922 38.7808C18.0326 40.085 16.9011 40.7223 15.5493 40.2756C15.2979 40.1974 15.0732 40.051 14.9001 39.8528C14.9001 40.0493 14.9001 40.2458 14.9001 40.4483C14.8992 40.5149 14.9138 40.5807 14.9427 40.6407C14.9717 40.7007 15.0142 40.753 15.0669 40.7937C15.5656 41.1082 16.1343 41.2944 16.7224 41.3356C17.3499 41.3322 17.9693 41.1941 18.5388 40.9307C18.5892 40.9073 18.6441 40.8951 18.6996 40.8951C18.7552 40.8951 18.81 40.9073 18.8604 40.9307C20.1265 41.4086 21.4344 41.7675 22.7671 42.0026C24.4822 42.3421 25.6673 41.8657 26.376 41.026C26.4381 40.9483 26.4718 40.8516 26.4712 40.752V40.0434C26.4712 39.9296 26.4261 39.8206 26.3457 39.7402C26.2653 39.6597 26.1562 39.6146 26.0425 39.6146H24.8216Z" fill="#ADADAD"/>
<path d="M14.7274 51.3584C18.1041 53.2403 22.1715 54.1931 26.8226 54.1931C27.2276 54.1931 27.6504 54.1931 28.0672 54.1931C43.8964 53.6393 53.6333 47.8329 57.0159 36.9228C56.1464 36.5416 53.3058 34.761 52.7519 27.7636C52.3243 23.0266 50.5051 18.5221 47.5232 14.8168C45.7406 12.6418 43.505 10.8818 40.9724 9.65948C37.9145 8.21604 34.569 7.48505 31.1878 7.52154C30.5149 7.52154 29.8241 7.52154 29.1273 7.593C36.9347 8.9508 42.3718 20.1646 42.9555 26.9536C43.5927 34.3203 48.0413 37.7684 48.0413 37.7684C45.4984 46.7967 33.034 52.1385 20.0514 50.1018C7.06891 48.0651 4.44263 36.2558 4.44263 36.2558C4.99851 39.4332 6.21587 42.4583 8.0158 45.1351C9.7261 47.7139 12.027 49.8474 14.7274 51.3584V51.3584Z" fill="#E8E8E8"/>
<path d="M12.4466 22.4097C16.2699 17.711 21.451 11.3925 21.6356 8.92697C9.94534 12.4823 8.69473 21.6772 8.61731 24.7919C8.61731 25.2623 8.58158 25.7328 8.53394 26.2033C10.0128 25.1323 11.3304 23.8548 12.4466 22.4097V22.4097Z" fill="#ADADAD"/>
<path d="M27.6147 10.6659C26.3164 14.7394 34.6241 23.4817 41.032 26.0782C46.5585 28.3174 51.3763 26.7512 52.1445 24.113C51.2998 20.7073 49.7228 17.5268 47.5232 14.793C45.7406 12.618 43.505 10.858 40.9724 9.63567C38.2145 8.34016 35.2167 7.63431 32.1705 7.56323C30.3303 7.8074 28.2817 8.56968 27.6147 10.6659Z" fill="#ADADAD"/>
<path d="M33.2067 9.57609C33.2067 9.57609 34.2667 9.61778 34.2667 10.255C34.2667 10.8922 34.225 13.179 35.2434 14.3641C36.2617 15.5492 37.0657 9.83217 37.0657 9.83217C37.0657 9.83217 35.4518 8.93888 35.3268 8.93888C35.2017 8.93888 34.3501 8.81381 34.3501 8.81381C33.9005 8.94606 33.5017 9.21192 33.2067 9.57609Z" fill="#606060"/>
<path d="M52.1445 24.113C51.9343 23.2567 51.6738 22.4136 51.3644 21.5879V21.5879C51.2155 21.177 51.0487 20.7661 50.876 20.3611C50.7927 20.1706 50.7093 19.98 50.62 19.7656V19.7299C50.5306 19.5334 50.4413 19.3428 50.346 19.1344L50.0363 18.6103V18.5388L49.7386 17.9969C49.7403 17.985 49.7403 17.973 49.7386 17.9612C49.6492 17.8004 49.554 17.6396 49.4587 17.4788L49.4051 17.3835L49.0894 16.8773V16.8356L48.7917 16.389L48.7143 16.2758L48.3808 15.8053L48.0592 15.3766L47.8746 15.2634C47.7555 15.1145 47.6423 14.9657 47.5232 14.8227C45.7406 12.6477 43.505 10.8877 40.9724 9.66545L40.4483 9.42128L40.2756 9.30813L39.9124 9.1652L39.6741 9.06992L39.3823 8.95677L39.1084 8.85553L38.8404 8.76025L38.5426 8.66496L38.2985 8.58159L37.9769 8.4863L37.7565 8.42079L37.3992 8.31955L37.2146 8.27191L36.8156 8.17663L36.6905 8.14685L36.232 8.04561C34.8945 7.76827 33.5357 7.60687 32.1705 7.56323V7.56323C31.5991 7.63538 31.0364 7.76507 30.4911 7.95033C37.4647 10.2312 42.2945 20.3016 42.9317 26.7095C47.6542 27.9363 51.4656 26.4474 52.1445 24.113Z" fill="#E8E8E8"/>
<path d="M32.8672 8.77213C32.8672 8.77213 31.7238 10.4217 32.1705 11.4818C32.2183 10.9997 32.3869 10.5374 32.6607 10.1377C32.9344 9.73805 33.3045 9.4138 33.7367 9.19496C35.1957 8.55774 33.3615 8.43268 32.8672 8.77213Z" fill="#606060"/>
<path d="M37.1074 8.93889C37.4247 8.94948 37.7401 8.99339 38.0483 9.06991C37.828 8.68877 37.6791 8.47438 37.6791 8.47438C37.6791 8.47438 33.8022 8.34932 32.7183 9.66544C32.4606 10.0326 32.3289 10.4736 32.3431 10.922C32.367 10.6123 32.6647 8.74237 37.1074 8.93889Z" fill="#333333"/>
<path d="M48.744 22.8207C48.744 22.8207 43.6582 23.0767 38.62 18.6519C33.5819 14.2272 34.4513 11.1483 34.7431 10.255C35.0349 9.3617 39.7634 6.44361 45.4626 5.61583C51.1619 4.78804 52.7757 5.48481 53.1569 6.25304C53.538 7.02128 56.0571 17.8003 48.744 22.8207Z" fill="#1A1917"/>
<path d="M48.613 22.5705H48.6607C55.6581 17.6931 53.3832 7.17611 52.9663 6.34237C52.7698 5.94337 52.0611 5.4729 49.816 5.4729C48.3819 5.49784 46.9513 5.62121 45.5341 5.84213C39.9123 6.65205 35.2672 9.54036 34.9933 10.3205C34.6236 11.3764 34.5739 12.5179 34.8504 13.6019V13.6019C35.3327 14.9597 36.4106 16.6569 38.632 18.6281C40.8661 20.6551 43.6107 22.0346 46.5704 22.6182V22.6182C47.242 22.7964 47.9504 22.7799 48.613 22.5705V22.5705Z" fill="#606060"/>
<path d="M38.632 18.6281C40.8662 20.6551 43.6107 22.0346 46.5704 22.6182V22.6182C47.2337 22.8096 47.9377 22.8096 48.6011 22.6182H48.6488C52.9842 19.5989 53.7584 14.4118 53.6214 10.7076C53.5202 15.8589 51.1142 17.985 51.8348 15.9483C52.5554 13.9116 52.6805 8.90912 52.4304 7.72402C52.1802 6.53892 52.2577 6.53296 48.8572 7.04512C45.4567 7.55727 39.7813 10.1836 37.834 13.0004C36.3392 15.1443 35.5948 15.0014 35.3268 14.787C36.2 16.2475 37.318 17.5469 38.632 18.6281V18.6281Z" fill="#ADADAD"/>
<path d="M37.6136 15.0669C37.6136 15.0669 42.1932 20.6231 47.0884 20.9805C51.9837 21.3378 52.877 8.51605 51.7931 7.18207C51.8229 7.18207 43.021 7.37264 37.6136 15.0669Z" fill="#FFF2E6"/>
<path d="M37.6136 15.0669C37.6136 15.0669 42.1932 20.6232 47.0884 20.9805C47.4734 21.0111 47.8602 20.9541 48.22 20.8137C48.22 20.8137 44.8254 19.3726 44.0512 16.7463C44.0512 16.7463 50.3698 14.12 51.7931 7.21781C51.8229 7.18208 43.021 7.37265 37.6136 15.0669Z" fill="#DDD0C5"/>
<path d="M52.0492 7.05106C49.0428 7.31934 46.1116 8.13895 43.4021 9.4689C39.4597 11.5711 36.9763 14.7453 37.4468 15.3825C37.9173 16.0197 39.3168 9.79049 52.0492 7.05106Z" fill="#333333"/>
<path d="M17.1631 30.8305C17.1631 30.8305 13.59 25.5363 9.37958 28.1268C9.37958 28.1268 12.7026 23.6603 17.1631 30.8305Z" fill="#1A1917"/>
<path d="M11.2317 35.6722C11.2317 35.6722 8.08727 34.6776 6.64014 38.1317C6.64014 38.1317 8.40886 35.4518 11.2317 35.6722Z" fill="#1A1917"/>
<path d="M10.5409 38.62C10.5409 38.62 8.67092 38.6617 7.9801 41.4845C7.9801 41.4667 8.94486 39.3763 10.5409 38.62Z" fill="#1A1917"/>
<path d="M10.517 41.1212C10.517 41.1212 9.14133 41.8776 9.32595 43.9977C9.52086 42.9671 9.92633 41.9879 10.517 41.1212V41.1212Z" fill="#1A1917"/>
<path d="M10.8625 32.1883C10.797 31.7357 10.0109 31.6345 9.11162 31.962C8.21237 32.2896 7.53942 32.9149 7.60493 33.3615C7.67044 33.8082 8.45058 33.9154 9.34983 33.5878C10.2491 33.2603 10.928 32.635 10.8625 32.1883Z" fill="#D3D3D3"/>
<path d="M18.5805 28.7462C18.5805 28.7462 18.6579 25.9829 17.8778 25.0599C17.0976 24.1368 14.8108 23.3209 14.6917 24.1963C14.5726 25.0718 16.9606 27.2574 17.6991 28.365C18.4376 29.4727 18.5745 29.5561 18.5805 28.7462Z" fill="#F9D9C0"/>
<path d="M17.2822 31.8846C17.2822 31.8846 16.383 32.5337 16.4008 33.1829C16.4187 33.832 17.5919 35.3089 18.4078 35.4756C19.2236 35.6424 19.6405 35.7496 20.4623 35.2791C20.8555 35.0336 21.1945 34.7105 21.4586 34.3296C21.7228 33.9487 21.9066 33.518 21.9988 33.0637C21.978 32.7713 21.8706 32.4917 21.6903 32.2605C21.51 32.0293 21.265 31.857 20.9864 31.7655C20.5993 31.6464 18.3363 31.3427 17.2822 31.8846Z" fill="#1A1917"/>
<path d="M25.8519 30.8663C25.8519 30.8663 31.7059 25.6554 38.5069 28.2638C38.5069 28.2638 33.1888 23.8092 25.8519 30.8663Z" fill="#1A1917"/>
<path d="M33.1888 35.7019C33.1888 35.7019 38.3044 34.7491 40.5912 38.1794C38.5205 36.4567 35.8793 35.5728 33.1888 35.7019V35.7019Z" fill="#1A1917"/>
<path d="M34.2667 38.626C34.2667 38.626 37.292 38.6915 38.3699 41.4845C37.3092 40.153 35.8833 39.1596 34.2667 38.626V38.626Z" fill="#1A1917"/>
<path d="M34.2667 41.1034C34.2667 41.1034 36.488 41.8657 36.1486 43.9679C35.8021 42.8556 35.15 41.8631 34.2667 41.1034V41.1034Z" fill="#1A1917"/>
<path d="M36.0473 32.2658C36.1605 31.8191 37.4289 31.7298 38.8761 32.0573C40.3232 32.3849 41.413 33.0161 41.2999 33.4628C41.1867 33.9094 39.9183 33.9987 38.4711 33.6712C37.024 33.3437 35.9342 32.7124 36.0473 32.2658V32.2658Z" fill="#D3D3D3"/>
<path d="M23.5889 28.7878C23.5889 28.7878 23.4995 26.0365 24.7799 25.1432C26.0603 24.2499 29.8062 23.4519 29.9848 24.2976C30.1635 25.1432 26.2568 27.2752 25.0479 28.4067C23.839 29.5382 23.5889 29.5978 23.5889 28.7878Z" fill="#F9D9C0"/>
<path d="M17.973 31.027C17.973 31.027 20.772 30.3303 22.4871 31.1878C22.4871 31.1878 20.4564 28.5139 17.973 31.027Z" fill="#ADADAD"/>
<path d="M20.9864 31.7655C20.5993 31.6464 18.3363 31.3427 17.2584 31.8846C17.2584 31.8846 16.383 32.5456 16.4008 33.1829C16.4082 33.2764 16.4282 33.3686 16.4604 33.4568H16.508C16.508 33.4568 16.7641 32.9446 16.9785 33.1173C17.1911 33.3624 17.4702 33.5406 17.782 33.6305C18.0938 33.7203 18.4249 33.7179 18.7353 33.6235C19.9264 33.4092 21.439 32.6052 21.713 32.7779C21.8073 32.8269 21.8835 32.9047 21.9307 33C21.9778 33.0954 21.9933 33.2032 21.975 33.3079C21.9965 33.2321 22.0105 33.1543 22.0167 33.0757C21.9968 32.7789 21.8878 32.4951 21.704 32.2614C21.5202 32.0276 21.2701 31.8548 20.9864 31.7655V31.7655Z" fill="#333333"/>
<path d="M16.9785 32.8315C16.9785 32.8315 17.5324 34.0225 19.6346 33.1709C21.7368 32.3193 18.646 33.4568 16.9785 32.8315Z" fill="#666666"/>
<path d="M24.0296 41.7704C20.9269 41.8359 18.2053 41.3297 18.2649 38.0186C18.0538 38.3869 17.9353 38.8011 17.9198 39.2254C17.9042 39.6497 17.992 40.0714 18.1756 40.4543C17.58 40.9069 16.5319 41.4786 15.591 40.895C15.3165 40.726 15.081 40.5007 14.9001 40.2339C14.9001 40.5317 14.9001 40.8295 14.9001 41.1332C15.4394 41.5479 16.1085 41.7576 16.788 41.7248C17.4675 41.6921 18.1133 41.4191 18.6103 40.9545C19.0199 41.3266 19.5056 41.605 20.0336 41.7704C22.118 42.4969 25.0241 42.5565 26.4772 41.4845V40.5436C26.2097 40.9418 25.8437 41.2641 25.4148 41.479C24.9859 41.694 24.5087 41.7944 24.0296 41.7704V41.7704Z" fill="#606060"/>
<path d="M17.1691 43.5867C17.1691 43.5867 21.7606 43.4676 22.5288 44.087C23.2971 44.7063 22.4752 47.2671 20.5814 46.9038C18.6877 46.5406 17.9373 46.0522 17.3715 45.1947C16.8058 44.3371 16.776 43.7535 17.1691 43.5867Z" fill="#ADADAD"/>
<path d="M14.1259 15.6386C14.2152 16.5736 14.8941 17.3835 15.9839 18.0207C18.1576 15.2634 20.1884 12.4942 21.1115 10.5528C16.913 11.4222 13.9353 13.5066 14.1259 15.6386Z" fill="#E2E2E2"/>
<path d="M33.6295 13.852C33.4687 12.0654 31.0866 10.6957 27.7695 10.2788C27.7107 10.413 27.659 10.5502 27.6146 10.6898C27.0191 12.4763 28.2876 15.0907 30.3958 17.7229C32.492 16.6689 33.7605 15.2634 33.6295 13.852Z" fill="#E2E2E2"/>
<path d="M36.8335 10.0466C36.8335 10.0466 38.9893 7.74782 43.5153 6.88431C48.0413 6.02079 42.7232 8.11705 40.7878 9.11158C38.8523 10.1061 35.1838 12.4882 36.8335 10.0466Z" fill="#E2E2E2"/>
<path fill-rule="evenodd" clip-rule="evenodd" d="M49.2622 21.9512C51.5788 22.3561 53.4964 22.9159 55.9321 21.9988C56.5693 21.7487 59.9876 19.313 60.2794 19.4142C60.333 19.4142 60.333 19.6703 60.333 19.718C60.2794 20.6827 61.9588 24.1308 59.4636 25.7566C57.5519 26.9477 48.0473 23.0648 47.9877 21.2425" fill="white"/>
<path d="M49.2622 21.9512C51.5788 22.3561 53.4964 22.9159 55.9321 21.9988C56.5693 21.7487 59.9876 19.313 60.2794 19.4142C60.333 19.4142 60.333 19.6703 60.333 19.718C60.2794 20.6827 61.9588 24.1308 59.4636 25.7566C57.5519 26.9477 48.0473 23.0648 47.9877 21.2425" stroke="black" stroke-width="0.297764" stroke-miterlimit="10"/>
<path fill-rule="evenodd" clip-rule="evenodd" d="M49.4944 21.4926C51.0011 23.4221 52.1028 25.2445 54.479 26.2092C55.1162 26.4653 59.1777 27.0727 59.3504 27.3288C59.4099 27.3764 59.2313 27.5313 59.2313 27.5789C58.5941 28.2876 57.7246 32.0454 54.8839 31.5332C52.6805 31.1283 47.9282 21.445 48.9703 20.0217" fill="white"/>
<path d="M49.4944 21.4926C51.0011 23.4221 52.1028 25.2445 54.479 26.2092C55.1162 26.4653 59.1777 27.0727 59.3504 27.3288C59.4099 27.3764 59.2313 27.5313 59.2313 27.5789C58.5941 28.2876 57.7246 32.0454 54.8839 31.5332C52.6805 31.1283 47.9282 21.445 48.9703 20.0217" stroke="black" stroke-width="0.297764" stroke-miterlimit="10"/>
<path fill-rule="evenodd" clip-rule="evenodd" d="M50.5366 21.2187C50.483 21.1711 51.3524 22.1299 51.5251 22.4098C52.6269 23.9343 57.0874 22.3621 57.0278 22.7135C56.9147 24.4405 55.7534 24.7442 53.8417 24.4405C50.5961 23.8807 50.5366 21.2187 50.5366 21.2187Z" fill="#000213"/>
<path fill-rule="evenodd" clip-rule="evenodd" d="M51.5251 26.3641C51.3191 25.7216 51.1833 25.0587 51.1202 24.3869C51.1738 26.3105 56.4799 27.6802 56.2775 27.9601C55.408 29.0797 54.4909 28.9248 53.3772 28.0137C53.4368 28.1626 53.4963 28.2638 53.4368 28.2638C52.5078 28.6211 51.9897 27.8588 51.5251 26.3402" fill="#000213"/>
<path d="M49.2323 21.1115C49.6135 22.8981 49.9887 24.6847 50.3639 26.4713C50.3699 26.5025 50.3691 26.5347 50.3615 26.5656C50.3539 26.5965 50.3398 26.6254 50.32 26.6503C50.3001 26.6752 50.2752 26.6955 50.2468 26.7098C50.2184 26.7241 50.1872 26.7321 50.1554 26.7333C43.4741 27.6857 36.7337 28.1633 29.9849 28.1626C23.236 28.1633 16.4956 27.6857 9.8143 26.7333C9.78251 26.7321 9.75134 26.7241 9.72294 26.7098C9.69453 26.6955 9.66957 26.6752 9.64977 26.6503C9.62996 26.6254 9.61578 26.5965 9.6082 26.5656C9.60063 26.5347 9.59983 26.5025 9.60587 26.4713C9.96914 24.7561 10.3265 23.0351 10.6897 21.3199C10.7078 21.2594 10.7476 21.2077 10.8014 21.1747C10.8553 21.1417 10.9194 21.1298 10.9815 21.1413C17.2766 22.0341 23.6268 22.4818 29.9849 22.4812C36.4253 22.4822 42.8575 22.0225 49.2323 21.1055V21.1115ZM49.0477 19.8788C42.7358 20.7843 36.3674 21.2401 29.9908 21.2425C23.614 21.2405 17.2455 20.7828 10.9339 19.8728L9.23069 19.6525C9.19373 19.65 9.15667 19.6551 9.12174 19.6674C9.08682 19.6797 9.05475 19.699 9.02747 19.724C9.0002 19.7491 8.97828 19.7794 8.96306 19.8132C8.94783 19.8469 8.9396 19.8834 8.93888 19.9204L8.47436 20.6232C8.67818 22.0093 8.63584 23.4205 8.3493 24.7919L7.97412 26.4593L8.15278 27.6504C8.1645 27.7041 8.19361 27.7525 8.23559 27.788C8.27758 27.8236 8.3301 27.8443 8.38504 27.8469L9.33193 27.9184C16.1607 28.8975 23.0505 29.3891 29.9491 29.3893C36.8695 29.3966 43.7815 28.907 50.6318 27.9243L51.5132 27.7993C51.5642 27.7933 51.6121 27.7719 51.6504 27.7378C51.6888 27.7037 51.7157 27.6586 51.7276 27.6087L51.9241 26.239C52.0671 24.4524 52.204 22.7075 52.2576 20.9447L52.3053 19.4857C52.3033 19.4479 52.2927 19.411 52.2744 19.3779C52.256 19.3448 52.2304 19.3162 52.1994 19.2944C52.1685 19.2727 52.133 19.2582 52.0956 19.2521C52.0582 19.246 52.02 19.2485 51.9837 19.2594L49.0477 19.8788Z" fill="#000213"/>
<path d="M50.4294 26.7035C36.985 28.6509 23.3301 28.6509 9.88577 26.7035C10.2788 24.8395 10.7076 22.8862 9.59991 21.0877C22.237 22.9279 38.2746 22.3264 50.9117 20.4922C51.2988 22.3502 50.0363 24.8395 50.4294 26.7035Z" fill="#E2E2E2"/>
<path d="M50.8284 20.4862L50.8879 20.9507C50.8776 20.7948 50.8577 20.6396 50.8284 20.4862Z" fill="white"/>
<path d="M41.1451 27.6206C41.1037 27.512 41.086 27.3957 41.0932 27.2796C41.1004 27.1636 41.1323 27.0504 41.1868 26.9477C41.3416 26.7392 41.6096 26.7809 41.7823 26.6678C41.9143 26.5709 42.015 26.4375 42.0721 26.2841C42.1293 26.1307 42.1403 25.9639 42.1039 25.8043C42.0849 25.6474 42.0172 25.5005 41.9104 25.3841C41.8036 25.2676 41.663 25.1876 41.5084 25.1551C41.0855 25.1551 40.7937 25.4708 40.3769 25.4767C39.7813 25.4767 39.9004 25.2802 39.5133 25.0122C39.507 25.0094 39.5015 25.0049 39.4977 24.999C39.4939 24.9932 39.4919 24.9864 39.4919 24.9795C39.4919 24.9725 39.4939 24.9657 39.4977 24.9599C39.5015 24.9541 39.507 24.9495 39.5133 24.9467C39.7456 24.7561 39.9243 24.1606 40.5496 24.3512C40.7163 24.3988 41.0796 24.1904 41.2582 24.0475C41.4369 23.9045 41.3535 23.7318 41.3297 23.5353C41.3218 23.4463 41.29 23.3611 41.2376 23.2887C41.1851 23.2164 41.1141 23.1596 41.0319 23.1244H40.9605C40.8007 23.1246 40.6443 23.0787 40.5101 22.992C40.3759 22.9054 40.2697 22.7818 40.2042 22.6361C40.1532 22.505 40.1269 22.3657 40.1267 22.2251C40.1279 22.0055 40.1809 21.7892 40.2816 21.5939C29.6395 22.2787 18.8425 22.2728 9.35577 20.915C10.0347 22.106 9.82624 24.8693 9.42724 26.7333C19.9362 28.239 30.5791 28.5805 41.163 27.7516C41.161 27.7075 41.155 27.6637 41.1451 27.6206Z" fill="white"/>
<path d="M9.59394 23.4757L9.33191 25.173L13.1373 24.8276L9.59394 23.4757Z" fill="#000213"/>
<path d="M50.6973 22.9576L50.9594 24.6549L47.0349 24.3333L50.6973 22.9576Z" fill="#000213"/>
<path fill-rule="evenodd" clip-rule="evenodd" d="M18.1041 25.9829C18.1041 26.6321 18.5328 27.0608 19.4023 27.174C21.7606 27.4788 24.1454 27.5208 26.5129 27.2991C27.4956 27.2097 27.841 26.7988 27.8529 26.1497L27.8946 23.8033C27.9101 23.6335 27.8862 23.4624 27.8247 23.3034C27.7633 23.1443 27.6659 23.0016 27.5403 22.8864C27.4147 22.7711 27.2641 22.6864 27.1004 22.6389C26.9366 22.5913 26.7641 22.5822 26.5963 22.6122C24.1606 22.6718 21.7785 22.642 19.4857 22.4812C19.3231 22.4605 19.158 22.4736 19.0007 22.5196C18.8434 22.5656 18.6973 22.6437 18.5715 22.7487C18.4457 22.8538 18.343 22.9838 18.2697 23.1304C18.1965 23.277 18.1543 23.4371 18.1458 23.6008L18.1041 25.9829Z" fill="#2B2929"/>
<path d="M24.9467 24.0058C25.2028 23.7795 25.5779 24.2023 25.6196 24.2499C25.662 24.2985 25.6939 24.3554 25.7133 24.4168C25.7328 24.4783 25.7394 24.5431 25.7328 24.6072C25.7122 24.7126 25.6553 24.8075 25.572 24.8752L25.5065 24.9229C25.5339 24.935 25.5582 24.953 25.5778 24.9757C25.5973 24.9983 25.6116 25.025 25.6196 25.0539C25.6459 25.1311 25.6459 25.2149 25.6196 25.2921C25.585 25.5479 25.4727 25.7869 25.298 25.977C25.2747 26.0016 25.2465 26.0213 25.2153 26.0347C25.184 26.0482 25.1504 26.0551 25.1164 26.0551C25.0824 26.0551 25.0488 26.0482 25.0175 26.0347C24.9863 26.0213 24.9581 26.0016 24.9348 25.977C24.6966 25.5958 24.5596 25.5422 24.5596 25.5422L21.3735 25.4708C21.1559 25.5465 20.954 25.6615 20.778 25.8102L20.7363 25.8519C20.5517 25.9591 20.5159 26.0008 20.4147 25.8519C20.3135 25.703 20.4088 25.3219 20.4504 25.2564V25.2266C20.4477 25.2128 20.4477 25.1987 20.4504 25.1849C20.2777 24.3988 20.373 24.2142 20.4504 24.1189C20.5279 24.0236 20.6291 24.0355 20.7482 24.1189C20.7948 24.1531 20.8386 24.1909 20.8792 24.2321C20.9966 24.3527 21.1361 24.4498 21.2901 24.5179H24.6191L24.6727 24.4822C24.7373 24.4233 24.7829 24.3466 24.8038 24.2618C24.8221 24.1631 24.8723 24.0732 24.9467 24.0058Z" fill="#F4A817"/>
</g>
<defs>
<radialGradient id="paint0_radial" cx="0" cy="0" r="1" gradientUnits="userSpaceOnUse" gradientTransform="translate(30.547 29.02) scale(31.8471 27.9413)">
<stop offset="0.29" stop-color="white"/>
<stop offset="0.35" stop-color="#FFF9F9"/>
<stop offset="0.44" stop-color="#FEE9E9"/>
<stop offset="0.54" stop-color="#FCCECD"/>
<stop offset="0.65" stop-color="#FAA9A7"/>
<stop offset="0.77" stop-color="#F77876"/>
<stop offset="0.89" stop-color="#F33F3B"/>
<stop offset="1" stop-color="#F00500"/>
</radialGradient>
<clipPath id="clip0">
<rect width="61" height="58.1474" fill="white"/>
</clipPath>
</defs>
</svg>
