<svg width="16" height="16" viewBox="0 0 16 16" fill="none" xmlns="http://www.w3.org/2000/svg">
<path fill-rule="evenodd" clip-rule="evenodd" d="M8 0C5.82733 0 5.55499 0.0093324 4.70166 0.0479991C3.84999 0.0869991 3.26833 0.222332 2.75966 0.419998C2.23366 0.624332 1.78733 0.898 1.343 1.34267C0.897997 1.78733 0.624337 2.23367 0.420003 2.75967C0.222337 3.26867 0.0866708 3.85 0.0480042 4.70167C0.00933749 5.555 0 5.82733 0 8C0 10.1727 0.00933749 10.445 0.0480042 11.2983C0.0870042 12.15 0.222337 12.7317 0.420003 13.2403C0.624337 13.7663 0.898005 14.2127 1.34267 14.657C1.78734 15.102 2.23366 15.3757 2.75966 15.5803C3.26866 15.7777 3.84999 15.913 4.70166 15.952C5.55499 15.9907 5.82733 16 8 16C10.1727 16 10.445 15.9907 11.2983 15.952C12.15 15.913 12.7317 15.7777 13.2403 15.58C13.7663 15.3757 14.2127 15.102 14.657 14.6573C15.102 14.2127 15.3757 13.7663 15.5803 13.2403C15.7777 12.7313 15.913 12.15 15.952 11.2983C15.9907 10.445 16 10.1727 16 8C16 5.82733 15.9907 5.555 15.952 4.70167C15.913 3.85 15.7777 3.26834 15.58 2.75967C15.3757 2.23367 15.102 1.78734 14.6573 1.343C14.2127 0.898002 13.7663 0.624332 13.2403 0.419998C12.7313 0.222332 12.15 0.0866657 11.2983 0.0479991C10.445 0.0093324 10.1727 0 8 0V0ZM8 1.44134C10.136 1.44134 10.389 1.44967 11.2327 1.488C12.0127 1.52367 12.436 1.654 12.7183 1.76367C13.0917 1.90867 13.3583 2.082 13.6383 2.362C13.918 2.642 14.0913 2.90866 14.2363 3.282C14.3463 3.56366 14.4763 3.98733 14.512 4.76733C14.5503 5.61067 14.5587 5.864 14.5587 8C14.5587 10.136 14.5503 10.389 14.512 11.2327C14.4763 12.0127 14.346 12.436 14.2363 12.7183C14.0913 13.0917 13.918 13.3583 13.638 13.6383C13.358 13.918 13.0913 14.0913 12.718 14.2363C12.4363 14.3463 12.0127 14.4763 11.2327 14.512C10.3893 14.5503 10.136 14.5587 8 14.5587C5.86367 14.5587 5.61067 14.5503 4.76733 14.512C3.98733 14.4763 3.564 14.346 3.28167 14.2363C2.90833 14.0913 2.64166 13.918 2.36166 13.638C2.082 13.358 1.90866 13.0913 1.76366 12.718C1.65366 12.4363 1.52366 12.0127 1.488 11.2327C1.44966 10.3893 1.44134 10.136 1.44134 8C1.44134 5.864 1.44966 5.611 1.488 4.76733C1.52366 3.98733 1.654 3.564 1.76366 3.28167C1.90866 2.90833 2.082 2.64167 2.362 2.36167C2.642 2.082 2.90867 1.90867 3.282 1.76367C3.56367 1.65367 3.98733 1.52367 4.76733 1.488C5.61067 1.44967 5.864 1.44134 8 1.44134ZM8 3.892C5.731 3.892 3.892 5.731 3.892 8C3.892 10.269 5.731 12.108 8 12.108C10.269 12.108 12.108 10.269 12.108 8C12.108 5.731 10.269 3.892 8 3.892ZM8 10.6667C7.29276 10.6667 6.61448 10.3857 6.11438 9.88562C5.61428 9.38552 5.33333 8.70724 5.33333 8C5.33333 7.29276 5.61428 6.61448 6.11438 6.11438C6.61448 5.61428 7.29276 5.33333 8 5.33333C8.70724 5.33333 9.38552 5.61428 9.88562 6.11438C10.3857 6.61448 10.6667 7.29276 10.6667 8C10.6667 8.70724 10.3857 9.38552 9.88562 9.88562C9.38552 10.3857 8.70724 10.6667 8 10.6667ZM13.2303 3.72967C13.2303 3.98427 13.1292 4.22845 12.9492 4.40849C12.7691 4.58852 12.5249 4.68967 12.2703 4.68967C12.0157 4.68967 11.7715 4.58852 11.5915 4.40849C11.4115 4.22845 11.3103 3.98427 11.3103 3.72967C11.3103 3.47506 11.4115 3.23088 11.5915 3.05084C11.7715 2.87081 12.0157 2.76967 12.2703 2.76967C12.5249 2.76967 12.7691 2.87081 12.9492 3.05084C13.1292 3.23088 13.2303 3.47506 13.2303 3.72967V3.72967Z" fill="#050C35"/>
</svg>
