<svg width="183" height="72" viewBox="0 0 183 72" fill="none" xmlns="http://www.w3.org/2000/svg">
<path d="M49.2747 58.4742L55.1284 56.3683C56.806 55.7615 57.9125 54.191 57.9125 52.4063C57.9125 49.7293 55.4496 47.7305 52.844 48.3016L46.7405 49.5865C44.5989 50.0505 43.064 51.9423 43.064 54.1196C43.0283 57.332 46.2407 59.545 49.2747 58.4742Z" fill="#050C35"/>
<path d="M55.2711 15.9275L49.3459 13.536C46.312 12.3224 43.0282 14.5354 43.0282 17.7836C43.0282 19.8895 44.4559 21.7098 46.4905 22.2452L52.7012 23.8158C55.3425 24.4939 57.8767 22.4951 57.8767 19.7824C57.9124 18.1048 56.8773 16.57 55.2711 15.9275Z" fill="#050C35"/>
<path d="M30.0358 28.3846C30.0358 31.7397 32.6771 34.4881 36.0323 34.5952L62.3027 35.5233C64.4086 35.5946 66.1576 33.9171 66.1576 31.8111C66.1576 30.0978 64.9797 28.563 63.2664 28.2061L37.6741 22.3167C33.7479 21.3886 30.0358 24.3512 30.0358 28.3846Z" fill="#050C35"/>
<path d="M57.9123 41.4127V41.7339C57.9123 43.8042 56.4132 45.5531 54.3787 45.8744L48.4535 46.8738C45.6337 47.3378 43.0638 45.1605 43.0638 42.305V41.9838C43.0638 39.4495 45.0984 37.3793 47.6326 37.3436L53.6291 37.2365C55.9848 37.1652 57.9123 39.0926 57.9123 41.4127Z" fill="#050C35"/>
<path d="M89.8938 28.4202H93.2847V32.4536H89.8938V39.5209C89.8938 40.9844 90.572 41.4841 91.8927 41.4841C92.4281 41.4841 93.0705 41.4127 93.2847 41.3413V45.1248C92.8564 45.3033 92.0354 45.5531 90.7148 45.5531C87.431 45.5531 85.3607 43.59 85.3607 40.3419V32.4893H82.3268V28.4202H83.1834C84.9681 28.4202 85.789 27.2424 85.789 25.7432V23.3875H89.8938V28.4202V28.4202Z" fill="#050C35"/>
<path d="M111.381 36.8438C111.381 42.0194 107.562 45.8029 102.529 45.8029C97.4965 45.8029 93.6774 42.0194 93.6774 36.8438C93.6774 31.6326 97.4965 27.8848 102.529 27.8848C107.562 27.8848 111.381 31.6326 111.381 36.8438ZM106.813 36.8438C106.813 33.6671 104.742 32.0252 102.529 32.0252C100.316 32.0252 98.2461 33.6314 98.2461 36.8438C98.2461 39.9849 100.316 41.6268 102.529 41.6268C104.742 41.6268 106.813 40.0206 106.813 36.8438Z" fill="#050C35"/>
<path d="M126.837 28.4202L130.477 39.3067L133.583 28.4202H138.116L132.833 45.3032H128.264L124.338 33.7742L120.448 45.3032H115.807L110.418 28.4202H115.201L118.306 39.271L121.982 28.4202H126.837V28.4202Z" fill="#050C35"/>
<path d="M142.863 35.5589L147.003 34.9521C147.967 34.8093 148.288 34.3453 148.288 33.7385C148.288 32.5249 147.36 31.5612 145.433 31.5612C143.434 31.5612 142.363 32.8462 142.221 34.3096L138.187 33.453C138.473 30.8116 140.9 27.8848 145.433 27.8848C150.787 27.8848 152.786 30.9187 152.786 34.3096V42.5905C152.786 43.4828 152.893 44.6964 153 45.2675H148.824C148.717 44.8392 148.645 43.9112 148.645 43.233C147.789 44.5536 146.182 45.7315 143.684 45.7315C140.079 45.7315 137.902 43.3044 137.902 40.663C137.83 37.6648 140.043 35.9872 142.863 35.5589ZM148.288 38.4501V37.7005L144.469 38.2716C143.291 38.4501 142.363 39.0925 142.363 40.4132C142.363 41.4126 143.077 42.3763 144.541 42.3763C146.504 42.3763 148.288 41.4483 148.288 38.4501Z" fill="#050C35"/>
</svg>
