<svg width="16" height="14" viewBox="0 0 16 14" fill="none" xmlns="http://www.w3.org/2000/svg">
<g clip-path="url(#clip0)">
<path fill-rule="evenodd" clip-rule="evenodd" d="M16 1.57833C15.4025 1.85047 14.7668 2.02922 14.115 2.10833C14.8051 1.68238 15.3177 1.02112 15.5583 0.246668C14.9159 0.637817 14.21 0.913844 13.4727 1.06233C12.8757 0.408332 12.022 0 11.077 0C9.26533 0 7.79566 1.507 7.79566 3.366C7.79566 3.62967 7.824 3.886 7.88033 4.13266C5.152 3.99166 2.73367 2.65333 1.11367 0.614334C0.821456 1.13102 0.668461 1.71474 0.669668 2.30833C0.669668 3.47567 1.249 4.506 2.12967 5.11C1.60716 5.09271 1.09671 4.94857 0.642334 4.69V4.73133C0.642334 6.36267 1.774 7.72367 3.27666 8.03167C2.99529 8.11144 2.70412 8.15139 2.41166 8.15033C2.20033 8.15033 1.99367 8.13 1.79367 8.09033C2.21167 9.427 3.423 10.401 4.86 10.427C3.73666 11.3303 2.32067 11.8687 0.783335 11.8687C0.518335 11.8687 0.256667 11.853 0 11.8223C1.453 12.7757 3.179 13.3333 5.032 13.3333C11.0703 13.3333 14.3717 8.205 14.3717 3.75667C14.3717 3.61033 14.3687 3.464 14.363 3.32067C15.0082 2.84213 15.5626 2.25206 16 1.57833" fill="#050C35"/>
</g>
<defs>
<clipPath id="clip0">
<rect width="16" height="13.3333" fill="white"/>
</clipPath>
</defs>
</svg>
