<svg width="256" height="256" viewBox="0 0 256 256" fill="none" xmlns="http://www.w3.org/2000/svg">
<rect width="256" height="256" fill="#050C35"/>
<path d="M55.7631 142.846C57.9197 142.846 60.0078 142.573 62.0272 142.028C64.0662 141.482 65.8896 140.664 67.4973 139.572C69.105 138.462 70.3794 137.068 71.3204 135.392C72.2811 133.697 72.7615 131.719 72.7615 129.458C72.7615 127.334 72.3596 125.581 71.5557 124.197C70.7715 122.813 69.7618 121.703 68.5266 120.865C67.311 120.007 66.0366 119.345 64.7034 118.877C63.3702 118.39 62.1546 118 61.0567 117.708L53.7044 115.72C52.8026 115.486 51.9203 115.194 51.0576 114.843C50.195 114.492 49.4793 114.034 48.9108 113.469C48.3422 112.885 48.0579 112.134 48.0579 111.218C48.0579 110.225 48.401 109.367 49.0872 108.646C49.793 107.925 50.6949 107.379 51.7928 107.009C52.9104 106.619 54.0966 106.444 55.3513 106.483C57.2727 106.542 59.0373 107.107 60.645 108.178C62.2527 109.25 63.2918 110.809 63.7623 112.855L72.4086 111.394C71.3891 107.438 69.4089 104.408 66.468 102.303C63.5271 100.198 59.8607 99.1169 55.469 99.0585C52.5673 99.039 49.9205 99.4872 47.5285 100.403C45.1366 101.319 43.225 102.712 41.7938 104.583C40.3625 106.454 39.6469 108.802 39.6469 111.628C39.6469 113.635 39.9802 115.301 40.6468 116.626C41.333 117.932 42.1859 118.984 43.2054 119.783C44.2249 120.582 45.2738 121.196 46.3522 121.625C47.4501 122.053 48.4108 122.385 49.2343 122.618L60.2332 125.834C61.8801 126.321 62.9781 126.935 63.5271 127.675C64.076 128.396 64.3505 129.186 64.3505 130.043C64.3505 131.212 63.9486 132.196 63.1447 132.995C62.3605 133.794 61.3508 134.398 60.1156 134.808C58.8804 135.217 57.606 135.422 56.2924 135.422C53.9397 135.422 51.8419 134.769 49.9989 133.463C48.1559 132.157 46.9403 130.296 46.3522 127.88L38 129.108C38.4313 131.953 39.4508 134.408 41.0585 136.474C42.6858 138.52 44.7543 140.098 47.2638 141.209C49.793 142.301 52.6261 142.846 55.7631 142.846Z" fill="white"/>
<path d="M89.8716 142.905C92.1655 142.905 94.1653 142.525 95.871 141.765C97.5768 141.005 99.008 139.991 100.165 138.725V141.969H107.223V110.4H99.1648V126.418C99.1648 128.367 98.9394 129.946 98.4884 131.154C98.0571 132.343 97.4983 133.249 96.8121 133.872C96.1259 134.476 95.3907 134.886 94.6064 135.1C93.8222 135.314 93.087 135.422 92.4008 135.422C90.695 135.422 89.3716 135.042 88.4305 134.282C87.5091 133.522 86.8424 132.576 86.4307 131.446C86.019 130.316 85.7739 129.195 85.6955 128.085C85.6171 126.954 85.5779 126.029 85.5779 125.308V110.4H77.461V128.114C77.461 128.64 77.5002 129.478 77.5786 130.628C77.657 131.777 77.8825 133.054 78.255 134.457C78.6275 135.841 79.2451 137.175 80.1078 138.462C80.9901 139.748 82.2154 140.81 83.7839 141.648C85.3524 142.486 87.3816 142.905 89.8716 142.905Z" fill="white"/>
<path d="M114.266 141.969H122.324V125.834C122.324 122.17 123.775 119.676 126.677 118.351C127.618 117.903 128.667 117.639 129.823 117.562C131 117.464 132.029 117.552 132.911 117.825V110.4C131.48 110.225 130.049 110.264 128.618 110.517C127.186 110.751 125.892 111.218 124.736 111.92C123.991 112.349 123.334 112.865 122.765 113.469C122.216 114.073 121.736 114.746 121.324 115.486V110.4H114.266V141.969Z" fill="white"/>
<path d="M151.518 142.846C154.577 142.846 157.39 142.047 159.958 140.449C162.546 138.851 164.438 136.61 165.634 133.726L157.635 131.446C156.42 134.096 154.224 135.422 151.047 135.422C148.871 135.422 147.156 134.817 145.901 133.609C144.666 132.401 143.901 130.667 143.607 128.406H165.899C166.232 124.587 165.84 121.264 164.723 118.438C163.605 115.613 161.88 113.421 159.547 111.862C157.214 110.303 154.38 109.523 151.047 109.523C147.91 109.523 145.136 110.234 142.725 111.657C140.313 113.06 138.421 115.038 137.049 117.591C135.676 120.144 134.99 123.145 134.99 126.594C134.99 129.751 135.686 132.557 137.078 135.012C138.49 137.448 140.431 139.368 142.901 140.771C145.391 142.154 148.263 142.846 151.518 142.846ZM151.4 116.422C153.322 116.422 154.792 116.899 155.812 117.854C156.851 118.809 157.517 120.358 157.812 122.502H143.813C144.656 118.448 147.185 116.422 151.4 116.422Z" fill="white"/>
<path d="M171.951 141.969H179.951V99H171.951V141.969Z" fill="white"/>
<path d="M191.649 156H199.06L217 110.4H209.001L200.707 131.885L192.355 110.4H184.062L196.884 141.706L191.649 156Z" fill="white"/>
</svg>
