<svg width="183" height="72" viewBox="0 0 183 72" fill="none" xmlns="http://www.w3.org/2000/svg">
<path d="M48.3233 18.4718L43.9529 15.9382L39.5825 18.4718L35.2121 20.9737L30.8417 23.5073L26.4713 26.0408V31.0763L30.8417 33.6099V28.5744L35.2121 26.0408L39.5825 23.5073L43.9529 20.9737L48.3233 23.5073V28.5744V33.6099V38.677L52.7254 41.1789V36.1434V31.0763V26.0408V20.9737L48.3233 18.4718Z" fill="white"/>
<path d="M61.4662 41.179V36.1435V31.0764V26.0409L57.0957 23.5073L52.7253 26.0409L57.0957 28.5745V33.6099V38.6771V43.7125L52.7253 46.2461L48.3233 43.7125L43.9528 41.179L39.5824 38.6771L35.212 41.179L39.5824 43.7125L43.9528 46.2461L48.3233 48.748L52.7253 51.2816L57.0957 48.748L61.4662 46.2461V41.179Z" fill="white"/>
<path d="M48.3233 48.7479L43.9529 51.2815L39.5825 48.7479L35.2121 46.246L30.8417 43.7124V38.6769L35.2121 36.1434L39.5825 33.6098L43.9529 31.0762V26.0408L39.5825 28.5743L35.2121 31.0762L30.8417 33.6098L26.4713 36.1434V41.1788V46.246L30.8417 48.7479L35.2121 51.2815L39.5825 53.815L43.9529 56.3486L48.3233 53.815V48.7479Z" fill="white"/>
<path d="M91.584 39.0257V40.7358C91.584 41.5592 91.6791 41.7809 91.8057 41.9709V42.0659H87.4669C87.4036 41.9709 87.372 41.7492 87.372 41.2109V40.1341C87.372 38.4556 86.7702 37.8539 84.9334 37.8539H80.5313V42.0976H76.351V29.0181H86.0102C90.8556 29.0181 91.489 30.9816 91.489 32.5334V32.6917C91.489 34.4336 90.1906 35.447 88.6388 35.7637C90.3806 36.1121 91.584 37.0621 91.584 39.0257ZM85.4401 34.5919C86.8019 34.5919 87.1186 34.0219 87.1186 33.3568V33.3251C87.1186 32.6917 86.7702 32.1217 85.4401 32.1217H80.5313V34.5919H85.4401Z" fill="white"/>
<path d="M97.4113 42.0657V29.0178H101.592V42.034H97.4113V42.0657Z" fill="white"/>
<path d="M107.26 35.7V35.2883C107.26 32.4697 108.939 28.8594 115.273 28.8594H115.875C122.114 28.8594 123.729 31.583 123.729 33.5781V33.6415H119.327C119.2 33.3248 118.693 32.0897 115.558 32.0897C112.454 32.0897 111.568 33.7682 111.568 35.415V35.6367C111.568 37.2202 112.518 39.0887 115.621 39.0887C118.567 39.0887 119.2 37.7269 119.295 37.3152H115.653V34.9399H123.824V42.1289H120.72C120.657 41.6856 120.403 40.8305 120.182 40.3871C119.802 40.7988 118.377 42.319 115.146 42.319H114.861C109.002 42.2556 107.26 38.6453 107.26 35.7Z" fill="white"/>
<path d="M129.873 42.0657V29.0178H134.053V42.034H129.873V42.0657Z" fill="white"/>
<path d="M147.481 29.0178C154.448 29.0178 156 32.3431 156 35.1301V35.6684C156 38.5504 154.702 42.0657 147.481 42.0657H140.292V29.0178H147.481ZM147.101 38.9304C151.218 38.9304 151.63 36.9669 151.63 35.5418V35.4468C151.63 34.085 151.218 32.1531 147.101 32.1531H144.472V38.9304H147.101Z" fill="white"/>
</svg>
