<svg width="183" height="72" viewBox="0 0 183 72" fill="none" xmlns="http://www.w3.org/2000/svg">
<path d="M73.9944 26.1508C74.3391 25.8554 74.1422 25.3137 73.6497 25.0182C73.108 24.7228 72.4186 24.7228 72.1232 25.0182C71.7785 25.3137 71.9262 25.8061 72.4679 26.1508C72.9111 26.4463 73.6497 26.4463 73.9944 26.1508Z" fill="white"/>
<path d="M80.002 29.6962C80.2483 29.4007 80.1005 28.9576 79.6081 28.7113C79.1649 28.4159 78.5247 28.4159 78.2785 28.7113C78.0323 29.0068 78.18 29.45 78.6232 29.6962C79.1157 29.9424 79.7066 29.9424 80.002 29.6962Z" fill="white"/>
<path d="M86.2066 32.7C85.8126 32.4538 85.3202 32.4538 85.1232 32.7C84.9262 32.9463 85.074 33.3402 85.5171 33.5864C85.9111 33.8326 86.4035 33.8326 86.6005 33.5864C86.7975 33.3402 86.6497 32.9463 86.2066 32.7Z" fill="white"/>
<path d="M59.6643 22.8022C60.1567 22.4083 60.1074 21.7681 59.4673 21.4234C58.8764 21.0294 57.99 21.0294 57.4483 21.4234C56.9559 21.8173 57.0051 22.4083 57.596 22.8022C58.2362 23.1962 59.1226 23.1962 59.6643 22.8022Z" fill="white"/>
<path d="M64.8843 26.1509C65.3767 25.7077 65.229 25.0675 64.5888 24.6243C63.9486 24.2304 63.013 24.2304 62.4713 24.6243C61.9789 25.0183 62.0774 25.7077 62.7176 26.1509C63.4562 26.5448 64.3918 26.5448 64.8843 26.1509Z" fill="white"/>
<path d="M76.6535 33.5866C76.9982 33.1927 76.8012 32.6018 76.2103 32.2571C75.6194 31.9124 74.8807 31.9124 74.536 32.2571C74.1913 32.6018 74.3391 33.2419 74.93 33.5866C75.5209 33.9806 76.3088 33.9806 76.6535 33.5866Z" fill="white"/>
<path d="M81.4792 36.6889C81.1837 37.0337 81.3807 37.5753 81.9223 37.92C82.464 38.2647 83.1042 38.2647 83.3997 37.92C83.6951 37.5753 83.4489 37.0337 82.9072 36.6889C82.4148 36.3442 81.7746 36.3442 81.4792 36.6889Z" fill="white"/>
<path d="M55.6759 26.0523C56.316 25.5598 56.2176 24.8212 55.5282 24.3287C54.8387 23.8855 53.8046 23.8855 53.1645 24.3287C52.5243 24.7719 52.5735 25.5598 53.2137 26.0523C53.9524 26.5447 55.0357 26.5447 55.6759 26.0523Z" fill="white"/>
<path d="M60.9942 29.6964C61.6344 29.1547 61.4866 28.3176 60.748 27.8251C60.0093 27.3327 58.8767 27.3327 58.2858 27.8251C57.6457 28.3176 57.7441 29.204 58.4828 29.6964C59.2214 30.2381 60.354 30.2381 60.9942 29.6964Z" fill="white"/>
<path d="M66.6571 33.5866C67.1988 33.0942 67.0511 32.257 66.3124 31.7646C65.5738 31.2722 64.5396 31.2722 63.998 31.7646C63.4563 32.257 63.604 33.0942 64.2934 33.5866C65.0813 34.1283 66.1154 34.1283 66.6571 33.5866Z" fill="white"/>
<path d="M77.4905 41.0223C77.0966 41.4655 77.3428 42.2042 77.9829 42.6966C78.6723 43.189 79.5095 43.189 79.9034 42.6966C80.2974 42.2534 80.0512 41.4655 79.3618 41.0223C78.7216 40.5791 77.8844 40.5791 77.4905 41.0223Z" fill="white"/>
<path d="M41.8384 22.4082C42.4293 22.0142 42.5278 21.4233 41.9862 21.0293C41.4937 20.6354 40.6073 20.6354 40.0164 21.0293C39.4255 21.4233 39.327 22.0142 39.8194 22.4082C40.3119 22.8021 41.1983 22.8021 41.8384 22.4082Z" fill="white"/>
<path d="M46.3687 25.8552C47.0581 25.3628 47.1073 24.6241 46.4671 24.1317C45.827 23.6885 44.7929 23.6885 44.1035 24.1317C43.4141 24.5749 43.3648 25.3628 43.9557 25.8552C44.5959 26.2984 45.6793 26.2984 46.3687 25.8552Z" fill="white"/>
<path d="M51.49 29.6964C52.3271 29.0562 52.3271 28.0221 51.4407 27.3819C50.6036 26.791 49.2248 26.791 48.3876 27.3819C47.5505 28.0221 47.5013 29.0562 48.3384 29.6964C49.2248 30.3858 50.6528 30.3858 51.49 29.6964Z" fill="white"/>
<path d="M53.4598 31.1736C52.6227 31.863 52.6227 32.9956 53.5583 33.7342C54.4939 34.4729 55.9712 34.4729 56.8576 33.7342C57.6947 32.9956 57.5963 31.863 56.6606 31.1736C55.725 30.4841 54.3462 30.4841 53.4598 31.1736Z" fill="white"/>
<path d="M62.4712 37.92C63.1606 37.2798 63.0128 36.2457 62.1264 35.6055C61.2893 35.0146 60.0582 35.0146 59.4181 35.6055C58.7287 36.2457 58.8271 37.2306 59.6643 37.92C60.5014 38.5601 61.7817 38.5601 62.4712 37.92Z" fill="white"/>
<path d="M68.8237 42.6967C69.4146 42.0565 69.2176 41.0716 68.3805 40.4315C67.5433 39.8406 66.4107 39.8406 65.8198 40.4315C65.2289 41.0224 65.3766 42.0565 66.2138 42.6967C67.0509 43.3368 68.2327 43.3861 68.8237 42.6967Z" fill="white"/>
<path d="M36.9631 25.5599C37.6032 25.1167 37.751 24.4765 37.2093 24.0826C36.7169 23.6886 35.7812 23.6886 35.1411 24.0826C34.5009 24.4765 34.3532 25.1659 34.8456 25.5599C35.338 25.9538 36.2737 25.9538 36.9631 25.5599Z" fill="white"/>
<path d="M41.4447 29.253C42.1833 28.7113 42.2818 27.8742 41.6416 27.3818C41.0015 26.8893 39.9181 26.8893 39.1795 27.3818C38.4408 27.8742 38.2931 28.7113 38.9332 29.253C39.5734 29.7947 40.706 29.7947 41.4447 29.253Z" fill="white"/>
<path d="M43.5125 30.9765C42.5769 31.6659 42.4784 32.7985 43.3155 33.5372C44.1527 34.2758 45.63 34.2758 46.6148 33.5372C47.5505 32.7985 47.5997 31.6659 46.7133 30.9765C45.8762 30.2871 44.4481 30.2871 43.5125 30.9765Z" fill="white"/>
<path d="M48.5354 35.1131C47.5998 35.8517 47.5506 37.1321 48.4862 37.9199C49.4218 38.7078 50.9976 38.7078 51.9332 37.9199C52.8688 37.1321 52.8196 35.8517 51.884 35.1131C50.9976 34.3744 49.471 34.3744 48.5354 35.1131Z" fill="white"/>
<path d="M54.4939 40.0373C53.706 40.7267 53.7553 41.8593 54.6416 42.598C55.4788 43.3366 56.8083 43.3366 57.5962 42.598C58.3349 41.8593 58.2364 40.7267 57.3993 40.0373C56.5621 39.3479 55.2818 39.3479 54.4939 40.0373Z" fill="white"/>
<path d="M60.9941 45.405C60.3047 46.0944 60.4524 47.227 61.2896 47.9164C62.1267 48.6551 63.3578 48.6551 64.0472 47.9164C64.6874 47.227 64.5396 46.0944 63.7025 45.405C62.8654 44.7156 61.6343 44.7156 60.9941 45.405Z" fill="white"/>
<path d="M27.5084 25.1167C28.0008 24.8213 28.1485 24.3288 27.8531 24.0334C27.5084 23.7379 26.8682 23.7379 26.3265 24.0334C25.7848 24.3288 25.6371 24.8213 25.9818 25.1167C26.2773 25.4614 27.0159 25.4614 27.5084 25.1167Z" fill="white"/>
<path d="M35.9785 32.8971C36.7172 32.4047 36.8156 31.5676 36.274 31.0751C35.7323 30.5827 34.6982 30.5827 34.0088 31.0751C33.2701 31.5676 33.1224 32.3555 33.6641 32.8971C34.1565 33.3896 35.2399 33.3896 35.9785 32.8971Z" fill="white"/>
<path d="M40.8535 37.3783C41.6907 36.7381 41.7892 35.704 41.0998 35.1131C40.4104 34.5222 39.2285 34.5222 38.3914 35.1131C37.5542 35.704 37.4065 36.7381 38.0959 37.3783C38.7853 38.0185 40.0164 38.0185 40.8535 37.3783Z" fill="white"/>
<path d="M43.4631 39.7418C42.626 40.4313 42.5275 41.5638 43.2662 42.2533C44.0048 42.9919 45.3836 42.9919 46.2208 42.2533C47.0579 41.5638 47.1072 40.4313 46.3193 39.7418C45.5314 39.1017 44.3003 39.1017 43.4631 39.7418Z" fill="white"/>
<path d="M21.6978 28.3668C22.141 28.0713 22.338 27.6774 22.0425 27.3819C21.7963 27.1357 21.2054 27.1357 20.7622 27.3819C20.319 27.6281 20.122 28.0713 20.3682 28.3668C20.6637 28.6623 21.2546 28.6623 21.6978 28.3668Z" fill="white"/>
<path d="M25.588 32.4048C26.1789 32.06 26.3266 31.4691 25.9819 31.0752C25.6372 30.7305 24.8985 30.7305 24.3076 31.0752C23.7659 31.4199 23.569 32.0108 23.9137 32.4048C24.2584 32.7495 24.997 32.7495 25.588 32.4048Z" fill="white"/>
<path d="M34.7472 41.8103C35.5844 41.1701 35.7321 40.1852 35.1412 39.5943C34.5503 39.0034 33.4177 39.0034 32.6298 39.5943C31.7926 40.1852 31.5957 41.1701 32.1866 41.8103C32.7283 42.4504 33.9101 42.4504 34.7472 41.8103Z" fill="white"/>
<path d="M37.6035 44.7648C36.7664 45.4542 36.6186 46.5376 37.2588 47.227C37.9482 47.9164 39.1793 47.9164 40.0164 47.227C40.8536 46.5376 40.952 45.405 40.2626 44.7648C39.5732 44.1246 38.3914 44.1246 37.6035 44.7648Z" fill="white"/>
<path d="M14.6559 31.0752C14.262 31.3214 14.1143 31.6661 14.3112 31.9124C14.5082 32.1586 15.0006 32.1586 15.3946 31.9124C15.7885 31.6661 15.9363 31.3214 15.7393 31.0752C15.5423 30.8782 15.0499 30.8782 14.6559 31.0752Z" fill="white"/>
<path d="M18.1031 35.1623C17.5615 35.4578 17.3645 35.9995 17.6599 36.3442C17.9554 36.6889 18.5956 36.6889 19.1373 36.3442C19.6789 35.9995 19.8267 35.507 19.5804 35.1623C19.2357 34.8176 18.5956 34.8176 18.1031 35.1623Z" fill="white"/>
<path d="M21.8946 39.6434C21.2544 40.0866 21.0082 40.8253 21.4021 41.2685C21.7961 41.7117 22.6332 41.7117 23.2734 41.2685C23.9135 40.8253 24.1105 40.0866 23.7658 39.6434C23.3719 39.2002 22.5347 39.2002 21.8946 39.6434Z" fill="white"/>
<path d="M63.2591 19.7983C63.6531 19.5028 63.5546 19.0104 63.0621 18.6657C62.5697 18.3702 61.7818 18.3702 61.3879 18.6657C60.9939 18.9611 61.0431 19.4536 61.5848 19.7983C62.1265 20.143 62.8652 20.143 63.2591 19.7983Z" fill="white"/>
<path d="M68.479 22.9007C68.8729 22.556 68.7252 22.0144 68.1835 21.6697C67.6418 21.325 66.8539 21.325 66.46 21.6697C66.0661 22.0144 66.1645 22.556 66.7555 22.9007C67.2479 23.2455 68.085 23.2455 68.479 22.9007Z" fill="white"/>
<path d="M70.4979 29.6962C70.9411 29.3022 70.7441 28.6621 70.104 28.2681C69.4638 27.8742 68.6266 27.8742 68.1835 28.2681C67.7403 28.6621 67.888 29.3022 68.5282 29.6962C69.1683 30.0901 70.0547 30.0901 70.4979 29.6962Z" fill="white"/>
<path d="M72.96 37.9199C73.4032 37.4275 73.2062 36.6396 72.5168 36.1472C71.8274 35.6547 70.8918 35.6547 70.3994 36.1472C69.9069 36.6396 70.1039 37.4275 70.8426 37.9199C71.532 38.4124 72.4676 38.4124 72.96 37.9199Z" fill="white"/>
<path d="M37.6526 19.3059C38.1943 19.0105 38.2435 18.518 37.8496 18.2226C37.4556 17.9271 36.717 17.9271 36.1753 18.2226C35.6336 18.518 35.5351 19.0105 35.9291 19.3059C36.3723 19.6014 37.1602 19.6014 37.6526 19.3059Z" fill="white"/>
<path d="M73.0587 45.8973C72.5663 46.4882 72.7632 47.4731 73.6004 48.1132C74.4375 48.7534 75.4716 48.7534 76.0133 48.1132C76.5057 47.5223 76.2595 46.5375 75.4224 45.8973C74.5852 45.3064 73.5511 45.3064 73.0587 45.8973Z" fill="white"/>
<path d="M32.876 22.162C33.4177 21.8173 33.5654 21.2756 33.1715 20.9802C32.7775 20.6847 31.9896 20.6355 31.448 20.9802C30.9063 21.3249 30.7586 21.8173 31.1525 22.162C31.4972 22.5067 32.2851 22.5067 32.876 22.162Z" fill="white"/>
<path d="M68.3312 51.4619C67.7403 52.1513 67.9373 53.2346 68.7744 53.9241C69.6116 54.6135 70.7442 54.6135 71.2858 53.9241C71.8275 53.2346 71.5813 52.1513 70.7934 51.4619C69.9563 50.7725 68.8729 50.7725 68.3312 51.4619Z" fill="white"/>
<path d="M31.5465 28.8099C32.1867 28.416 32.3344 27.7758 31.8912 27.3819C31.448 26.9879 30.6109 26.9879 30.0199 27.3819C29.3798 27.7758 29.2321 28.416 29.626 28.8099C30.0199 29.2039 30.9063 29.2039 31.5465 28.8099Z" fill="white"/>
<path d="M29.9215 36.8367C30.6109 36.3442 30.8079 35.6056 30.3154 35.1132C29.8723 34.67 28.9366 34.67 28.2472 35.1132C27.5578 35.6056 27.3608 36.3442 27.804 36.8367C28.2472 37.3291 29.2321 37.3291 29.9215 36.8367Z" fill="white"/>
<path d="M26.1297 44.617C25.3418 45.2079 25.0956 46.1436 25.588 46.7345C26.0805 47.3254 27.1638 47.3254 27.9517 46.7345C28.7396 46.1436 28.9366 45.1587 28.4442 44.617C27.9517 44.0261 26.9176 44.0261 26.1297 44.617Z" fill="white"/>
<path d="M31.0048 50.3786C30.2169 51.0187 29.9707 52.1021 30.5616 52.7915C31.1033 53.4809 32.2359 53.4809 33.073 52.7915C33.8609 52.1021 34.0579 51.0187 33.467 50.3786C32.9253 49.7384 31.7927 49.7384 31.0048 50.3786Z" fill="white"/>
<path d="M97.779 28.5636H101.078V30.8288C101.423 30.1394 101.965 29.5485 102.753 29.056C103.54 28.5636 104.476 28.3174 105.658 28.3174C106.347 28.3174 107.037 28.4159 107.628 28.6621C108.219 28.8591 108.76 29.2038 109.203 29.647C109.647 30.0901 109.991 30.6811 110.188 31.3705C110.435 32.0599 110.533 32.9463 110.533 33.8819V42.8442H107.234V34.1281C107.234 33.0448 106.987 32.2569 106.544 31.7644C106.101 31.272 105.362 31.0258 104.378 31.0258C103.442 31.0258 102.654 31.3212 102.014 31.8629C101.374 32.4538 101.029 33.291 101.029 34.4236V42.8442H97.7297V28.5636H97.779Z" fill="white"/>
<path d="M119.052 43.0905C118.018 43.0905 117.033 42.9428 116.147 42.5981C115.26 42.2533 114.522 41.7609 113.881 41.17C113.241 40.5298 112.749 39.7912 112.404 38.9048C112.059 38.0184 111.862 36.9843 111.862 35.9009V35.704C111.862 34.6206 112.059 33.5865 112.404 32.7001C112.749 31.8137 113.241 31.0258 113.881 30.3857C114.522 29.7455 115.26 29.2531 116.147 28.9084C117.033 28.5637 117.969 28.3667 118.953 28.3667C119.84 28.3667 120.677 28.5144 121.514 28.7606C122.302 29.0561 123.041 29.4501 123.632 30.041C124.272 30.6319 124.764 31.3705 125.109 32.2569C125.503 33.1433 125.651 34.2267 125.651 35.507V36.4426H115.211C115.26 37.8214 115.605 38.8555 116.294 39.5942C116.935 40.3329 117.919 40.6776 119.15 40.6776C120.135 40.6776 120.923 40.4806 121.416 40.0866C121.957 39.6927 122.253 39.151 122.401 38.4616H125.601C125.355 39.9882 124.666 41.1208 123.533 41.9086C122.401 42.6965 120.874 43.0905 119.052 43.0905ZM122.401 34.2267C122.302 32.9956 121.957 32.1092 121.366 31.5183C120.775 30.9766 119.988 30.6811 118.953 30.6811C117.969 30.6811 117.131 30.9766 116.491 31.6168C115.851 32.2569 115.457 33.0941 115.309 34.2267H122.401Z" fill="white"/>
<path d="M131.806 43.0905C131.117 43.0905 130.427 42.992 129.836 42.7951C129.245 42.5981 128.704 42.2534 128.261 41.8102C127.817 41.367 127.473 40.8253 127.226 40.1359C126.98 39.4465 126.882 38.6586 126.882 37.723V28.5637H130.181V37.3291C130.181 38.4124 130.427 39.2003 130.87 39.6927C131.314 40.1852 132.052 40.4314 132.988 40.4314C133.431 40.4314 133.825 40.3821 134.268 40.2344C134.662 40.0867 135.007 39.8897 135.352 39.5942C135.696 39.2988 135.893 38.9541 136.09 38.5109C136.287 38.0677 136.386 37.5753 136.386 37.0336V28.5637H139.685V42.7951H136.336V40.5791C135.992 41.2685 135.401 41.8594 134.662 42.3519C133.924 42.8443 132.988 43.0905 131.806 43.0905Z" fill="white"/>
<path d="M142 28.5636H145.299V31.2227C145.742 30.3364 146.333 29.5977 147.072 29.1053C147.81 28.6128 148.746 28.3666 149.928 28.3174V31.4197C149.189 31.4197 148.549 31.469 147.958 31.6167C147.367 31.7644 146.924 31.9614 146.481 32.3061C146.087 32.6016 145.791 32.9955 145.545 33.5372C145.348 34.0296 145.25 34.6698 145.25 35.4084V42.795H141.95V28.5636H142Z" fill="white"/>
<path d="M154.754 43.0906C154.113 43.0906 153.473 42.9921 152.882 42.8444C152.291 42.6966 151.799 42.4504 151.356 42.1057C150.913 41.761 150.568 41.3178 150.322 40.7761C150.075 40.2345 149.928 39.5943 149.928 38.8556C149.928 38.0185 150.125 37.3291 150.519 36.7382C150.913 36.1473 151.405 35.7041 152.094 35.3594C152.784 35.0147 153.523 34.7684 154.409 34.5715C155.295 34.4237 156.231 34.3253 157.265 34.3253H159.038V33.5866C159.038 32.6017 158.841 31.9123 158.496 31.4199C158.102 30.9275 157.462 30.7305 156.477 30.7305C155.591 30.7305 154.951 30.9275 154.507 31.3214C154.064 31.7154 153.818 32.257 153.719 32.9957H150.519C150.568 32.1585 150.814 31.4691 151.159 30.8782C151.504 30.2873 151.947 29.7949 152.488 29.4009C153.03 29.007 153.67 28.7607 154.36 28.5638C155.049 28.3668 155.837 28.2683 156.625 28.2683C157.413 28.2683 158.151 28.3668 158.841 28.5145C159.53 28.7115 160.121 28.9577 160.663 29.4009C161.204 29.8441 161.598 30.3365 161.894 31.0259C162.189 31.6661 162.337 32.5032 162.337 33.4881V42.8444H159.087V41.1208C158.595 41.761 158.053 42.2042 157.363 42.5981C156.723 42.8936 155.837 43.0906 154.754 43.0906ZM155.541 40.7269C156.576 40.7269 157.413 40.4807 158.053 39.9882C158.693 39.4958 159.038 38.7572 159.038 37.8708V36.4427H157.363C156.132 36.4427 155.098 36.5905 154.36 36.9352C153.621 37.2799 153.227 37.8708 153.227 38.7572C153.227 39.3481 153.424 39.8405 153.769 40.1852C154.163 40.5299 154.754 40.7269 155.541 40.7269Z" fill="white"/>
<path d="M164.701 21.9651H168V42.7951H164.701V21.9651Z" fill="white"/>
</svg>
