<svg width="183" height="72" viewBox="0 0 183 72" fill="none" xmlns="http://www.w3.org/2000/svg">
<path d="M64.1761 26.2186C63.7353 27.6879 63.7353 29.2307 64.1761 30.6632L67.9595 42.8584V14.0234L64.1761 26.2186Z" fill="white"/>
<path opacity="0.9" d="M71.7796 26.2186L67.9961 14.0234V42.8584L71.7796 30.6632C72.2203 29.2307 72.2203 27.6512 71.7796 26.2186Z" fill="white"/>
<path opacity="0.8" d="M60.0622 25.4105C60.0255 25.0065 59.8419 24.6024 59.5847 24.2718L56.6094 20.7822L60.503 29.9653L60.0622 25.4105Z" fill="white"/>
<path opacity="0.7" d="M56.6093 20.8193L57.0501 25.3742C57.0868 25.7782 57.2704 26.1823 57.5276 26.5129L60.5029 30.0024L56.6093 20.8193Z" fill="white"/>
<path opacity="0.9" d="M60.8334 36.0999C60.1355 34.7408 59.0335 33.6388 57.7112 32.9409L49.777 28.7534L64.9842 44.0708L60.8334 36.0999Z" fill="white"/>
<path d="M49.777 28.7163L53.9278 36.6872C54.6257 38.0463 55.7276 39.1483 57.05 39.8462L64.9842 44.0337L49.777 28.7163Z" fill="white"/>
<path opacity="0.8" d="M48.6016 38.7076C48.271 38.4504 47.867 38.3035 47.4629 38.2668L44.561 38.0464L50.879 40.5075L48.6016 38.7076Z" fill="white"/>
<path opacity="0.7" d="M44.561 38.0464L46.8384 39.8463C47.169 40.1034 47.5731 40.2503 47.9771 40.2871L50.879 40.5075L44.561 38.0464Z" fill="white"/>
<path d="M53.4504 48.8824C54.9197 49.3232 56.4624 49.3232 57.895 48.8824L63.9191 47.009H47.3895L53.4504 48.8824Z" fill="white"/>
<path opacity="0.9" d="M53.4505 45.1358L47.4264 47.0091H63.956L57.9319 45.1358C56.4626 44.695 54.8831 44.695 53.4505 45.1358Z" fill="white"/>
<path opacity="0.9" d="M61.3115 51.8212C60.9441 52.0049 60.6502 52.3354 60.4666 52.7028L58.5565 56.4127L65.0214 49.8376L61.3115 51.8212Z" fill="white"/>
<path d="M58.5194 56.4127L62.1927 54.4292C62.56 54.2455 62.8538 53.9149 63.0375 53.5476L64.9476 49.8376L58.5194 56.4127Z" fill="white"/>
<path opacity="0.8" d="M55.654 52.8132L53.6337 53.1071C53.4134 53.1438 53.193 53.254 53.0093 53.401L51.5033 54.7968L55.654 52.8132Z" fill="white"/>
<path opacity="0.7" d="M51.5034 54.7597L53.5237 54.4658C53.7441 54.4291 53.9645 54.3189 54.1481 54.172L55.6542 52.7761L51.5034 54.7597Z" fill="white"/>
<path opacity="0.7" d="M75.9307 25.4105C75.9674 25.0065 76.1511 24.6024 76.4082 24.2718L79.3835 20.7822L75.4899 29.9653L75.9307 25.4105Z" fill="white"/>
<path opacity="0.8" d="M79.3464 20.8193L78.9056 25.3742C78.8689 25.7782 78.6852 26.1823 78.4281 26.5129L75.4528 30.0024L79.3464 20.8193Z" fill="white"/>
<path d="M75.1225 36.0999C75.8205 34.7408 76.9224 33.6388 78.2448 32.9409L86.179 28.7534L70.9718 44.0708L75.1225 36.0999Z" fill="white"/>
<path opacity="0.9" d="M86.1792 28.7163L82.0285 36.6872C81.3306 38.0463 80.2286 39.1483 78.9062 39.8462L70.972 44.0337L86.1792 28.7163Z" fill="white"/>
<path opacity="0.7" d="M87.3542 38.7076C87.6848 38.4504 88.0889 38.3035 88.4929 38.2668L91.3948 38.0464L85.0768 40.5075L87.3542 38.7076Z" fill="white"/>
<path opacity="0.8" d="M91.3948 38.0464L89.1173 39.8463C88.7868 40.1034 88.3827 40.2503 87.9787 40.2871L85.0768 40.5075L91.3948 38.0464Z" fill="white"/>
<path opacity="0.9" d="M82.5056 48.8824C81.0363 49.3232 79.4936 49.3232 78.061 48.8824L72.0369 47.009H88.5665L82.5056 48.8824Z" fill="white"/>
<path d="M82.5056 45.1358L88.5297 47.0091H72.0001L78.0242 45.1358C79.5303 44.695 81.073 44.695 82.5056 45.1358Z" fill="white"/>
<path d="M74.6816 51.8212C75.049 52.0049 75.3428 52.3354 75.5265 52.7028L77.4366 56.4127L70.9717 49.8376L74.6816 51.8212Z" fill="white"/>
<path opacity="0.9" d="M77.4368 56.4127L73.7636 54.4292C73.3963 54.2455 73.1024 53.9149 72.9187 53.5476L71.0087 49.8376L77.4368 56.4127Z" fill="white"/>
<path opacity="0.7" d="M80.3016 52.8132L82.3219 53.1071C82.5423 53.1438 82.7627 53.254 82.9464 53.401L84.4524 54.7968L80.3016 52.8132Z" fill="white"/>
<path opacity="0.8" d="M84.4895 54.7597L82.4692 54.4658C82.2488 54.4291 82.0284 54.3189 81.8448 54.172L80.3387 52.7761L84.4895 54.7597Z" fill="white"/>
<path opacity="0.8" d="M67.2617 53.8785C67.1148 54.3193 67.1148 54.8335 67.2617 55.2743L67.9596 57.5885V51.6011L67.2617 53.8785Z" fill="white"/>
<path opacity="0.7" d="M68.6943 53.8781L67.9963 51.564V57.5514L68.6943 55.2372C68.8412 54.8332 68.8412 54.3189 68.6943 53.8781Z" fill="white"/>
<path d="M118.724 44.5112C118.724 46.6784 118.981 47.3029 120.524 48.0375V48.111H113.14V48.0743C114.646 47.3396 114.904 46.7152 114.904 44.548V28.6061C114.904 26.2552 113.949 23.7942 111.157 23.7942C109.1 23.7942 108.182 25.8144 108.182 28.3122V31.9855H112.259L112.075 32.8303H108.182V44.548C108.182 46.7152 108.99 47.4131 110.753 48.0743V48.1477H102.562V48.0743C104.104 47.3396 104.361 46.7152 104.361 44.548V32.8303H102.194V32.5732L104.361 31.8385V30.2223C104.361 25.3369 107.447 23.2432 111.12 23.2432C113.251 23.2432 114.793 24.3819 115.455 25.3002C116.667 24.9329 117.732 24.2717 118.687 23.3166H118.761V44.5112H118.724Z" fill="white"/>
<path d="M122.177 40.0665C122.177 35.1444 125.777 31.6548 130.588 31.6548C135.4 31.6548 139 35.1444 139 40.0665C139 44.9887 135.437 48.4782 130.588 48.4782C125.777 48.4415 122.177 44.9887 122.177 40.0665ZM134.776 40.0665C134.776 35.475 133.307 32.2792 130.588 32.2792C127.87 32.2792 126.401 35.475 126.401 40.0665C126.401 44.6213 127.87 47.8171 130.588 47.8171C133.307 47.8171 134.776 44.6213 134.776 40.0665Z" fill="white"/>
</svg>
